{
  "nbformat": 4,
  "nbformat_minor": 0,
  "metadata": {
    "colab": {
      "name": "music_style_transfer.ipynb",
      "version": "0.3.2",
      "provenance": [],
      "include_colab_link": true
    },
    "kernelspec": {
      "name": "python3",
      "display_name": "Python 3"
    }
  },
  "cells": [
    {
      "cell_type": "markdown",
      "metadata": {
        "id": "view-in-github",
        "colab_type": "text"
      },
      "source": [
        "<a href=\"https://colab.research.google.com/github/eswens13/style_transfer/blob/dev/erik/music_style_transfer.ipynb\" target=\"_parent\"><img src=\"https://colab.research.google.com/assets/colab-badge.svg\" alt=\"Open In Colab\"/></a>"
      ]
    },
    {
      "metadata": {
        "id": "1NzBTUvFJhw0",
        "colab_type": "code",
        "colab": {
          "base_uri": "https://localhost:8080/",
          "height": 34
        },
        "outputId": "a4047023-611f-4796-e587-78fc4e1c38bd"
      },
      "cell_type": "code",
      "source": [
        "!pip install mido"
      ],
      "execution_count": 1,
      "outputs": [
        {
          "output_type": "stream",
          "text": [
            "Requirement already satisfied: mido in /usr/local/lib/python3.6/dist-packages (1.2.9)\n"
          ],
          "name": "stdout"
        }
      ]
    },
    {
      "metadata": {
        "id": "3Dd4r5wqJtj5",
        "colab_type": "code",
        "colab": {
          "base_uri": "https://localhost:8080/",
          "height": 34
        },
        "outputId": "18955489-4e7d-44e4-b002-09aac355f7f1"
      },
      "cell_type": "code",
      "source": [
        "from google.colab import drive\n",
        "drive.mount('/content/drive')"
      ],
      "execution_count": 6,
      "outputs": [
        {
          "output_type": "stream",
          "text": [
            "Drive already mounted at /content/drive; to attempt to forcibly remount, call drive.mount(\"/content/drive\", force_remount=True).\n"
          ],
          "name": "stdout"
        }
      ]
    },
    {
      "metadata": {
        "id": "L8UehxTfKEYT",
        "colab_type": "code",
        "colab": {
          "base_uri": "https://localhost:8080/",
          "height": 52938
        },
        "outputId": "ea400d9d-d954-4357-cda7-6ec2486f7828"
      },
      "cell_type": "code",
      "source": [
        "import os\n",
        "import mido\n",
        "\n",
        "DRIVE_DIR = '/content/drive/My Drive/deep_learning/midis'\n",
        "midi_bytes = []\n",
        "filepath = os.path.join(DRIVE_DIR, 'beethoven_beethoven_opus10_3.mid')\n",
        "with open(filepath, 'rb') as infile:\n",
        "  midi_bytes = infile.read()\n",
        "\n",
        "print(\"Read {} bytes\".format(len(midi_bytes)))\n",
        "parser = mido.Parser()\n",
        "for b in midi_bytes:\n",
        "  parser.feed_byte(b)\n",
        "\n",
        "stopped = False\n",
        "while not stopped:\n",
        "  msg = parser.get_message()\n",
        "  if not msg:\n",
        "    stopped = True\n",
        "  else:\n",
        "    print(msg)\n",
        "\n"
      ],
      "execution_count": 24,
      "outputs": [
        {
          "output_type": "stream",
          "text": [
            "Read 27680 bytes\n",
            "pitchwheel channel=0 pitch=2637 time=0\n",
            "reset time=0\n",
            "reset time=0\n",
            "polytouch channel=9 note=32 value=50 time=0\n",
            "reset time=0\n",
            "reset time=0\n",
            "reset time=0\n",
            "reset time=0\n",
            "reset time=0\n",
            "reset time=0\n",
            "reset time=0\n",
            "reset time=0\n",
            "program_change channel=0 program=0 time=0\n",
            "note_on channel=0 note=60 velocity=40 time=0\n",
            "note_off channel=1 note=112 velocity=48 time=0\n",
            "control_change channel=0 control=64 value=127 time=0\n",
            "note_on channel=0 note=47 velocity=0 time=0\n",
            "control_change channel=0 control=64 value=0 time=0\n",
            "reset time=0\n",
            "note_on channel=0 note=48 velocity=0 time=0\n",
            "reset time=0\n",
            "note_on channel=0 note=65 velocity=38 time=0\n",
            "reset time=0\n",
            "note_on channel=0 note=63 velocity=45 time=0\n",
            "note_off channel=3 note=96 velocity=51 time=0\n",
            "reset time=0\n",
            "note_on channel=0 note=60 velocity=40 time=0\n",
            "note_off channel=1 note=112 velocity=48 time=0\n",
            "control_change channel=0 control=64 value=127 time=0\n",
            "note_on channel=0 note=47 velocity=0 time=0\n",
            "control_change channel=0 control=64 value=0 time=0\n",
            "reset time=0\n",
            "note_on channel=0 note=48 velocity=0 time=0\n",
            "reset time=0\n",
            "note_on channel=0 note=68 velocity=38 time=0\n",
            "reset time=0\n",
            "note_on channel=0 note=67 velocity=45 time=0\n",
            "note_off channel=3 note=96 velocity=55 time=0\n",
            "reset time=0\n",
            "note_on channel=0 note=60 velocity=40 time=0\n",
            "note_off channel=1 note=112 velocity=60 time=0\n",
            "control_change channel=0 control=64 value=127 time=0\n",
            "note_on channel=0 note=59 velocity=0 time=0\n",
            "control_change channel=0 control=64 value=0 time=0\n",
            "reset time=0\n",
            "note_on channel=0 note=60 velocity=0 time=0\n",
            "reset time=0\n",
            "aftertouch channel=13 value=0 time=0\n",
            "note_on channel=0 note=72 velocity=38 time=0\n",
            "reset time=0\n",
            "note_on channel=0 note=72 velocity=45 time=0\n",
            "control_change channel=0 control=64 value=127 time=0\n",
            "note_on channel=0 note=72 velocity=0 time=0\n",
            "control_change channel=0 control=64 value=0 time=0\n",
            "note_on channel=0 note=75 velocity=0 time=0\n",
            "reset time=0\n",
            "pitchwheel channel=5 pitch=7256 time=0\n",
            "reset time=0\n",
            "note_on channel=0 note=74 velocity=0 time=0\n",
            "control_change channel=0 control=64 value=0 time=0\n",
            "note_on channel=0 note=77 velocity=0 time=0\n",
            "note_off channel=1 note=112 velocity=75 time=0\n",
            "control_change channel=0 control=64 value=0 time=0\n",
            "reset time=0\n",
            "note_on channel=0 note=74 velocity=0 time=0\n",
            "reset time=0\n",
            "note_on channel=0 note=72 velocity=0 time=0\n",
            "control_change channel=0 control=64 value=0 time=0\n",
            "note_on channel=0 note=55 velocity=0 time=0\n",
            "note_off channel=1 note=112 velocity=55 time=0\n",
            "reset time=0\n",
            "note_on channel=0 note=43 velocity=0 time=0\n",
            "control_change channel=0 control=64 value=127 time=0\n",
            "note_on channel=0 note=42 velocity=0 time=0\n",
            "control_change channel=0 control=64 value=0 time=0\n",
            "reset time=0\n",
            "note_on channel=0 note=43 velocity=0 time=0\n",
            "reset time=0\n",
            "note_on channel=0 note=60 velocity=38 time=0\n",
            "reset time=0\n",
            "note_on channel=0 note=59 velocity=45 time=0\n",
            "note_off channel=3 note=96 velocity=47 time=0\n",
            "note_off channel=1 note=112 velocity=55 time=0\n",
            "reset time=0\n",
            "note_on channel=0 note=43 velocity=0 time=0\n",
            "control_change channel=0 control=64 value=127 time=0\n",
            "note_on channel=0 note=42 velocity=0 time=0\n",
            "control_change channel=0 control=64 value=0 time=0\n",
            "reset time=0\n",
            "note_on channel=0 note=43 velocity=0 time=0\n",
            "reset time=0\n",
            "note_on channel=0 note=63 velocity=38 time=0\n",
            "reset time=0\n",
            "note_off channel=5 note=104 velocity=0 time=0\n",
            "note_on channel=0 note=62 velocity=45 time=0\n",
            "note_off channel=3 note=96 velocity=50 time=0\n",
            "note_off channel=1 note=112 velocity=55 time=0\n",
            "reset time=0\n",
            "note_on channel=0 note=59 velocity=51 time=0\n",
            "reset time=0\n",
            "note_on channel=0 note=80 velocity=60 time=0\n",
            "reset time=0\n",
            "note_on channel=0 note=79 velocity=63 time=0\n",
            "reset time=0\n",
            "note_on channel=0 note=74 velocity=54 time=0\n",
            "reset time=0\n",
            "note_on channel=0 note=72 velocity=62 time=0\n",
            "control_change channel=0 control=64 value=127 time=0\n",
            "note_on channel=0 note=60 velocity=0 time=0\n",
            "reset time=0\n",
            "note_on channel=0 note=72 velocity=0 time=0\n",
            "control_change channel=0 control=64 value=0 time=0\n",
            "note_on channel=0 note=60 velocity=0 time=0\n",
            "control_change channel=0 control=64 value=0 time=0\n",
            "note_on channel=0 note=70 velocity=0 time=0\n",
            "reset time=0\n",
            "note_on channel=0 note=72 velocity=0 time=0\n",
            "reset time=0\n",
            "note_on channel=0 note=84 velocity=52 time=0\n",
            "reset time=0\n",
            "note_on channel=0 note=84 velocity=60 time=0\n",
            "control_change channel=0 control=64 value=127 time=0\n",
            "reset time=0\n",
            "note_on channel=0 note=60 velocity=0 time=0\n",
            "control_change channel=0 control=64 value=0 time=0\n",
            "note_on channel=0 note=60 velocity=0 time=0\n",
            "control_change channel=0 control=64 value=0 time=0\n",
            "note_on channel=0 note=71 velocity=0 time=0\n",
            "reset time=0\n",
            "program_change channel=14 program=81 time=0\n",
            "note_on channel=0 note=84 velocity=0 time=0\n",
            "reset time=0\n",
            "note_on channel=0 note=83 velocity=0 time=0\n",
            "control_change channel=0 control=64 value=0 time=0\n",
            "note_on channel=0 note=60 velocity=0 time=0\n",
            "control_change channel=0 control=64 value=0 time=0\n",
            "note_on channel=0 note=67 velocity=0 time=0\n",
            "reset time=0\n",
            "note_on channel=0 note=72 velocity=0 time=0\n",
            "control_change channel=0 control=64 value=127 time=0\n",
            "note_on channel=0 note=60 velocity=0 time=0\n",
            "control_change channel=0 control=64 value=0 time=0\n",
            "note_on channel=0 note=70 velocity=0 time=0\n",
            "reset time=0\n",
            "note_on channel=0 note=72 velocity=0 time=0\n",
            "reset time=0\n",
            "note_on channel=0 note=84 velocity=52 time=0\n",
            "reset time=0\n",
            "note_on channel=0 note=84 velocity=60 time=0\n",
            "control_change channel=0 control=64 value=127 time=0\n",
            "note_on channel=0 note=60 velocity=0 time=0\n",
            "reset time=0\n",
            "program_change channel=0 program=0 time=0\n",
            "note_on channel=0 note=84 velocity=0 time=0\n",
            "control_change channel=0 control=64 value=0 time=0\n",
            "note_on channel=0 note=86 velocity=0 time=0\n",
            "reset time=0\n",
            "note_on channel=0 note=84 velocity=0 time=0\n",
            "reset time=0\n",
            "note_on channel=0 note=89 velocity=0 time=0\n",
            "control_change channel=0 control=64 value=0 time=0\n",
            "note_on channel=0 note=60 velocity=0 time=0\n",
            "control_change channel=0 control=64 value=0 time=0\n",
            "note_on channel=0 note=71 velocity=0 time=0\n",
            "reset time=0\n",
            "note_on channel=0 note=84 velocity=0 time=0\n",
            "reset time=0\n",
            "note_on channel=0 note=83 velocity=0 time=0\n",
            "control_change channel=0 control=64 value=0 time=0\n",
            "note_on channel=0 note=72 velocity=44 time=0\n",
            "control_change channel=0 control=64 value=127 time=0\n",
            "note_on channel=0 note=84 velocity=0 time=0\n",
            "control_change channel=0 control=64 value=0 time=0\n",
            "note_on channel=0 note=72 velocity=0 time=0\n",
            "control_change channel=0 control=64 value=127 time=0\n",
            "reset time=0\n",
            "note_on channel=9 note=124 velocity=0 time=0\n",
            "note_on channel=0 note=86 velocity=0 time=0\n",
            "reset time=0\n",
            "note_on channel=0 note=84 velocity=0 time=0\n",
            "control_change channel=0 control=64 value=0 time=0\n",
            "note_on channel=0 note=83 velocity=0 time=0\n",
            "control_change channel=0 control=64 value=0 time=0\n",
            "note_on channel=0 note=80 velocity=0 time=0\n",
            "control_change channel=0 control=64 value=127 time=0\n",
            "reset time=0\n",
            "note_on channel=9 note=124 velocity=0 time=0\n",
            "note_on channel=0 note=75 velocity=0 time=0\n",
            "reset time=0\n",
            "note_on channel=0 note=74 velocity=0 time=0\n",
            "control_change channel=0 control=64 value=0 time=0\n",
            "note_on channel=0 note=72 velocity=0 time=0\n",
            "control_change channel=0 control=64 value=0 time=0\n",
            "note_on channel=0 note=72 velocity=0 time=0\n",
            "control_change channel=0 control=64 value=127 time=0\n",
            "reset time=0\n",
            "note_on channel=0 note=74 velocity=0 time=0\n",
            "reset time=0\n",
            "note_on channel=0 note=72 velocity=0 time=0\n",
            "control_change channel=0 control=64 value=0 time=0\n",
            "note_on channel=0 note=71 velocity=0 time=0\n",
            "control_change channel=0 control=64 value=127 time=0\n",
            "note_on channel=0 note=72 velocity=0 time=0\n",
            "control_change channel=0 control=64 value=0 time=0\n",
            "note_on channel=0 note=71 velocity=0 time=0\n",
            "control_change channel=0 control=64 value=127 time=0\n",
            "reset time=0\n",
            "note_on channel=9 note=124 velocity=0 time=0\n",
            "note_on channel=0 note=63 velocity=0 time=0\n",
            "reset time=0\n",
            "note_on channel=0 note=62 velocity=0 time=0\n",
            "control_change channel=0 control=64 value=0 time=0\n",
            "note_on channel=0 note=60 velocity=0 time=0\n",
            "control_change channel=0 control=64 value=0 time=0\n",
            "note_on channel=0 note=60 velocity=0 time=0\n",
            "control_change channel=0 control=64 value=127 time=0\n",
            "reset time=0\n",
            "note_on channel=5 note=30 velocity=0 time=0\n",
            "note_on channel=0 note=62 velocity=0 time=0\n",
            "reset time=0\n",
            "note_off channel=14 note=11 velocity=0 time=0\n",
            "note_on channel=0 note=60 velocity=0 time=0\n",
            "control_change channel=0 control=64 value=0 time=0\n",
            "note_on channel=0 note=59 velocity=0 time=0\n",
            "control_change channel=0 control=64 value=0 time=0\n",
            "note_on channel=0 note=55 velocity=0 time=0\n",
            "control_change channel=0 control=64 value=0 time=0\n",
            "note_on channel=0 note=55 velocity=0 time=0\n",
            "control_change channel=0 control=64 value=0 time=0\n",
            "note_on channel=0 note=62 velocity=0 time=0\n",
            "control_change channel=0 control=64 value=0 time=0\n",
            "note_on channel=0 note=55 velocity=0 time=0\n",
            "control_change channel=0 control=64 value=0 time=0\n",
            "note_on channel=0 note=63 velocity=0 time=0\n",
            "control_change channel=0 control=64 value=0 time=0\n",
            "note_on channel=0 note=55 velocity=0 time=0\n",
            "control_change channel=0 control=64 value=0 time=0\n",
            "note_on channel=0 note=62 velocity=0 time=0\n",
            "control_change channel=0 control=64 value=0 time=0\n",
            "note_on channel=0 note=55 velocity=0 time=0\n",
            "control_change channel=0 control=64 value=0 time=0\n",
            "reset time=0\n",
            "note_on channel=0 note=63 velocity=0 time=0\n",
            "reset time=0\n",
            "note_on channel=0 note=60 velocity=0 time=0\n",
            "control_change channel=0 control=64 value=0 time=0\n",
            "reset time=0\n",
            "control_change channel=8 control=30 value=0 time=0\n",
            "note_on channel=0 note=43 velocity=0 time=0\n",
            "note_off channel=1 note=112 velocity=58 time=0\n",
            "reset time=0\n",
            "program_change channel=7 program=0 time=0\n",
            "note_on channel=0 note=67 velocity=40 time=0\n",
            "reset time=0\n",
            "pitchwheel channel=2 pitch=-8192 time=0\n",
            "note_on channel=0 note=39 velocity=0 time=0\n",
            "note_off channel=2 note=104 velocity=58 time=0\n",
            "reset time=0\n",
            "tune_request time=0\n",
            "reset time=0\n",
            "note_on channel=0 note=56 velocity=37 time=0\n",
            "note_off channel=7 note=64 velocity=53 time=0\n",
            "reset time=0\n",
            "control_change channel=8 control=30 value=0 time=0\n",
            "note_on channel=0 note=58 velocity=40 time=0\n",
            "reset time=0\n",
            "program_change channel=7 program=0 time=0\n",
            "note_on channel=0 note=67 velocity=40 time=0\n",
            "reset time=0\n",
            "pitchwheel channel=2 pitch=-8192 time=0\n",
            "note_on channel=0 note=39 velocity=0 time=0\n",
            "note_off channel=2 note=104 velocity=60 time=0\n",
            "reset time=0\n",
            "tune_request time=0\n",
            "reset time=0\n",
            "pitchwheel channel=2 pitch=-8192 time=0\n",
            "note_on channel=0 note=50 velocity=31 time=0\n",
            "note_off channel=7 note=64 velocity=46 time=0\n",
            "reset time=0\n",
            "control_change channel=8 control=30 value=0 time=0\n",
            "note_on channel=0 note=58 velocity=40 time=0\n",
            "reset time=0\n",
            "program_change channel=7 program=0 time=0\n",
            "note_on channel=0 note=67 velocity=40 time=0\n",
            "reset time=0\n",
            "pitchwheel channel=2 pitch=-8192 time=0\n",
            "note_on channel=0 note=39 velocity=0 time=0\n",
            "note_off channel=2 note=104 velocity=58 time=0\n",
            "reset time=0\n",
            "polytouch channel=9 note=76 value=120 time=0\n",
            "reset time=0\n",
            "note_on channel=0 note=44 velocity=28 time=0\n",
            "reset time=0\n",
            "control_change channel=5 control=3 value=0 time=0\n",
            "note_on channel=0 note=72 velocity=72 time=0\n",
            "note_off channel=3 note=96 velocity=56 time=0\n",
            "note_off channel=3 note=96 velocity=60 time=0\n",
            "note_off channel=1 note=112 velocity=72 time=0\n",
            "reset time=0\n",
            "note_on channel=0 note=68 velocity=50 time=0\n",
            "reset time=0\n",
            "note_on channel=0 note=67 velocity=53 time=0\n",
            "note_off channel=1 note=112 velocity=67 time=0\n",
            "note_off channel=1 note=112 velocity=65 time=0\n",
            "note_off channel=1 note=112 velocity=34 time=0\n",
            "reset time=0\n",
            "note_on channel=0 note=38 velocity=45 time=0\n",
            "reset time=0\n",
            "note_on channel=0 note=58 velocity=0 time=0\n",
            "reset time=0\n",
            "program_change channel=0 program=0 time=0\n",
            "note_on channel=0 note=55 velocity=0 time=0\n",
            "note_off channel=1 note=112 velocity=70 time=0\n",
            "reset time=0\n",
            "note_on channel=0 note=67 velocity=50 time=0\n",
            "reset time=0\n",
            "program_change channel=10 program=0 time=0\n",
            "note_on channel=0 note=39 velocity=0 time=0\n",
            "note_off channel=1 note=112 velocity=67 time=0\n",
            "note_off channel=1 note=112 velocity=65 time=0\n",
            "note_off channel=1 note=112 velocity=34 time=0\n",
            "reset time=0\n",
            "note_on channel=0 note=38 velocity=45 time=0\n",
            "reset time=0\n",
            "note_on channel=0 note=58 velocity=0 time=0\n",
            "reset time=0\n",
            "note_on channel=0 note=39 velocity=0 time=0\n",
            "reset time=0\n",
            "aftertouch channel=9 value=0 time=0\n",
            "note_on channel=0 note=55 velocity=0 time=0\n",
            "note_off channel=1 note=112 velocity=82 time=0\n",
            "reset time=0\n",
            "pitchwheel channel=5 pitch=-8104 time=0\n",
            "note_on channel=0 note=79 velocity=50 time=0\n",
            "reset time=0\n",
            "note_on channel=0 note=46 velocity=0 time=0\n",
            "note_off channel=1 note=112 velocity=67 time=0\n",
            "note_off channel=1 note=112 velocity=65 time=0\n",
            "reset time=0\n",
            "program_change channel=0 program=0 time=0\n",
            "note_on channel=0 note=60 velocity=55 time=0\n",
            "reset time=0\n",
            "note_on channel=0 note=62 velocity=48 time=0\n",
            "reset time=0\n",
            "control_change channel=5 control=3 value=10 time=0\n",
            "note_on channel=0 note=63 velocity=48 time=0\n",
            "reset time=0\n",
            "reset time=0\n",
            "aftertouch channel=9 value=15 time=0\n",
            "reset time=0\n",
            "program_change channel=10 program=15 time=0\n",
            "reset time=0\n",
            "program_change channel=0 program=14 time=0\n",
            "control_change channel=0 control=64 value=127 time=0\n",
            "reset time=0\n",
            "reset time=0\n",
            "note_on channel=0 note=63 velocity=0 time=0\n",
            "reset time=0\n",
            "program_change channel=10 program=15 time=0\n",
            "reset time=0\n",
            "aftertouch channel=9 value=15 time=0\n",
            "reset time=0\n",
            "note_on channel=0 note=75 velocity=0 time=0\n",
            "reset time=0\n",
            "control_change channel=5 control=3 value=30 time=0\n",
            "reset time=0\n",
            "reset time=0\n",
            "reset time=0\n",
            "note_on channel=0 note=63 velocity=0 time=0\n",
            "reset time=0\n",
            "reset time=0\n",
            "program_change channel=10 program=70 time=0\n",
            "note_on channel=0 note=75 velocity=0 time=0\n",
            "reset time=0\n",
            "reset time=0\n",
            "aftertouch channel=9 value=15 time=0\n",
            "reset time=0\n",
            "program_change channel=0 program=15 time=0\n",
            "reset time=0\n",
            "reset time=0\n",
            "note_on channel=0 note=63 velocity=0 time=0\n",
            "reset time=0\n",
            "reset time=0\n",
            "reset time=0\n",
            "reset time=0\n",
            "program_change channel=0 program=10 time=0\n",
            "note_on channel=0 note=75 velocity=0 time=0\n",
            "reset time=0\n",
            "program_change channel=10 program=15 time=0\n",
            "reset time=0\n",
            "aftertouch channel=9 value=15 time=0\n",
            "reset time=0\n",
            "control_change channel=5 control=3 value=15 time=0\n",
            "reset time=0\n",
            "control_change channel=8 control=30 value=30 time=0\n",
            "reset time=0\n",
            "aftertouch channel=9 value=30 time=0\n",
            "reset time=0\n",
            "program_change channel=0 program=10 time=0\n",
            "note_on channel=0 note=63 velocity=0 time=0\n",
            "reset time=0\n",
            "reset time=0\n",
            "reset time=0\n",
            "reset time=0\n",
            "program_change channel=0 program=10 time=0\n",
            "note_on channel=0 note=75 velocity=0 time=0\n",
            "reset time=0\n",
            "program_change channel=10 program=6 time=0\n",
            "control_change channel=0 control=64 value=0 time=0\n",
            "reset time=0\n",
            "aftertouch channel=9 value=15 time=0\n",
            "reset time=0\n",
            "reset time=0\n",
            "control_change channel=5 control=3 value=15 time=0\n",
            "reset time=0\n",
            "control_change channel=8 control=30 value=15 time=0\n",
            "reset time=0\n",
            "control_change channel=11 control=62 value=12 time=0\n",
            "control_change channel=0 control=64 value=127 time=0\n",
            "reset time=0\n",
            "control_change channel=14 control=97 value=25 time=0\n",
            "note_on channel=0 note=63 velocity=0 time=0\n",
            "reset time=0\n",
            "control_change channel=11 control=62 value=15 time=0\n",
            "reset time=0\n",
            "program_change channel=10 program=15 time=0\n",
            "reset time=0\n",
            "program_change channel=0 program=15 time=0\n",
            "reset time=0\n",
            "reset time=0\n",
            "note_on channel=0 note=75 velocity=0 time=0\n",
            "reset time=0\n",
            "reset time=0\n",
            "reset time=0\n",
            "reset time=0\n",
            "reset time=0\n",
            "program_change channel=0 program=30 time=0\n",
            "reset time=0\n",
            "program_change channel=10 program=10 time=0\n",
            "note_on channel=0 note=63 velocity=0 time=0\n",
            "reset time=0\n",
            "program_change channel=0 program=15 time=0\n",
            "reset time=0\n",
            "reset time=0\n",
            "reset time=0\n",
            "reset time=0\n",
            "program_change channel=0 program=10 time=0\n",
            "note_on channel=0 note=75 velocity=0 time=0\n",
            "control_change channel=0 control=64 value=0 time=0\n",
            "note_on channel=0 note=56 velocity=0 time=0\n",
            "reset time=0\n",
            "program_change channel=15 program=0 time=0\n",
            "note_on channel=0 note=75 velocity=0 time=0\n",
            "reset time=0\n",
            "control_change channel=5 control=3 value=0 time=0\n",
            "note_on channel=0 note=75 velocity=0 time=0\n",
            "control_change channel=0 control=64 value=0 time=0\n",
            "reset time=0\n",
            "reset time=0\n",
            "aftertouch channel=9 value=15 time=0\n",
            "reset time=0\n",
            "program_change channel=10 program=15 time=0\n",
            "reset time=0\n",
            "program_change channel=0 program=15 time=0\n",
            "reset time=0\n",
            "reset time=0\n",
            "note_on channel=0 note=63 velocity=0 time=0\n",
            "control_change channel=0 control=64 value=127 time=0\n",
            "reset time=0\n",
            "program_change channel=10 program=15 time=0\n",
            "reset time=0\n",
            "aftertouch channel=9 value=15 time=0\n",
            "reset time=0\n",
            "note_on channel=0 note=75 velocity=0 time=0\n",
            "reset time=0\n",
            "control_change channel=5 control=3 value=30 time=0\n",
            "reset time=0\n",
            "reset time=0\n",
            "reset time=0\n",
            "note_on channel=0 note=63 velocity=0 time=0\n",
            "reset time=0\n",
            "reset time=0\n",
            "program_change channel=10 program=70 time=0\n",
            "note_on channel=0 note=75 velocity=0 time=0\n",
            "reset time=0\n",
            "reset time=0\n",
            "aftertouch channel=9 value=15 time=0\n",
            "reset time=0\n",
            "program_change channel=0 program=15 time=0\n",
            "reset time=0\n",
            "reset time=0\n",
            "note_on channel=0 note=63 velocity=0 time=0\n",
            "reset time=0\n",
            "reset time=0\n",
            "reset time=0\n",
            "reset time=0\n",
            "program_change channel=0 program=10 time=0\n",
            "note_on channel=0 note=75 velocity=0 time=0\n",
            "reset time=0\n",
            "program_change channel=10 program=15 time=0\n",
            "reset time=0\n",
            "aftertouch channel=9 value=15 time=0\n",
            "reset time=0\n",
            "control_change channel=5 control=3 value=15 time=0\n",
            "reset time=0\n",
            "control_change channel=8 control=30 value=30 time=0\n",
            "reset time=0\n",
            "aftertouch channel=9 value=30 time=0\n",
            "reset time=0\n",
            "program_change channel=0 program=10 time=0\n",
            "note_on channel=0 note=63 velocity=0 time=0\n",
            "reset time=0\n",
            "reset time=0\n",
            "reset time=0\n",
            "reset time=0\n",
            "program_change channel=0 program=10 time=0\n",
            "note_on channel=0 note=75 velocity=0 time=0\n",
            "reset time=0\n",
            "program_change channel=10 program=6 time=0\n",
            "control_change channel=0 control=64 value=0 time=0\n",
            "reset time=0\n",
            "aftertouch channel=9 value=15 time=0\n",
            "reset time=0\n",
            "reset time=0\n",
            "control_change channel=5 control=3 value=15 time=0\n",
            "reset time=0\n",
            "control_change channel=8 control=30 value=15 time=0\n",
            "reset time=0\n",
            "control_change channel=11 control=62 value=12 time=0\n",
            "control_change channel=0 control=64 value=127 time=0\n",
            "reset time=0\n",
            "control_change channel=14 control=97 value=25 time=0\n",
            "note_on channel=0 note=63 velocity=0 time=0\n",
            "reset time=0\n",
            "control_change channel=11 control=62 value=15 time=0\n",
            "reset time=0\n",
            "program_change channel=10 program=15 time=0\n",
            "reset time=0\n",
            "program_change channel=0 program=15 time=0\n",
            "reset time=0\n",
            "reset time=0\n",
            "note_on channel=0 note=75 velocity=0 time=0\n",
            "reset time=0\n",
            "reset time=0\n",
            "reset time=0\n",
            "reset time=0\n",
            "reset time=0\n",
            "program_change channel=0 program=30 time=0\n",
            "reset time=0\n",
            "program_change channel=10 program=10 time=0\n",
            "note_on channel=0 note=63 velocity=0 time=0\n",
            "reset time=0\n",
            "program_change channel=0 program=15 time=0\n",
            "reset time=0\n",
            "reset time=0\n",
            "reset time=0\n",
            "reset time=0\n",
            "program_change channel=0 program=10 time=0\n",
            "note_on channel=0 note=75 velocity=0 time=0\n",
            "control_change channel=0 control=64 value=0 time=0\n",
            "note_on channel=0 note=60 velocity=0 time=0\n",
            "reset time=0\n",
            "program_change channel=15 program=0 time=0\n",
            "note_on channel=0 note=75 velocity=0 time=0\n",
            "control_change channel=0 control=64 value=0 time=0\n",
            "reset time=0\n",
            "aftertouch channel=9 value=30 time=0\n",
            "reset time=0\n",
            "control_change channel=8 control=30 value=60 time=0\n",
            "reset time=0\n",
            "program_change channel=10 program=6 time=0\n",
            "control_change channel=0 control=64 value=127 time=0\n",
            "reset time=0\n",
            "program_change channel=0 program=90 time=0\n",
            "reset time=0\n",
            "aftertouch channel=9 value=27 time=0\n",
            "note_on channel=0 note=55 velocity=0 time=0\n",
            "reset time=0\n",
            "program_change channel=10 program=30 time=0\n",
            "reset time=0\n",
            "reset time=0\n",
            "note_on channel=0 note=51 velocity=0 time=0\n",
            "reset time=0\n",
            "program_change channel=0 program=60 time=0\n",
            "reset time=0\n",
            "program_change channel=10 program=27 time=0\n",
            "note_on channel=0 note=63 velocity=0 time=0\n",
            "reset time=0\n",
            "aftertouch channel=9 value=30 time=0\n",
            "reset time=0\n",
            "control_change channel=5 control=3 value=60 time=0\n",
            "reset time=0\n",
            "note_on channel=0 note=51 velocity=0 time=0\n",
            "reset time=0\n",
            "reset time=0\n",
            "note_on channel=0 note=63 velocity=0 time=0\n",
            "reset time=0\n",
            "reset time=0\n",
            "reset time=0\n",
            "control_change channel=5 control=3 value=57 time=0\n",
            "note_on channel=0 note=51 velocity=0 time=0\n",
            "reset time=0\n",
            "program_change channel=0 program=87 time=0\n",
            "note_on channel=0 note=63 velocity=0 time=0\n",
            "control_change channel=0 control=64 value=0 time=0\n",
            "reset time=0\n",
            "note_on channel=0 note=51 velocity=0 time=0\n",
            "reset time=0\n",
            "control_change channel=5 control=3 value=87 time=0\n",
            "note_on channel=0 note=63 velocity=0 time=0\n",
            "reset time=0\n",
            "reset time=0\n",
            "aftertouch channel=9 value=30 time=0\n",
            "reset time=0\n",
            "program_change channel=10 program=30 time=0\n",
            "reset time=0\n",
            "program_change channel=0 program=27 time=0\n",
            "note_on channel=0 note=51 velocity=0 time=0\n",
            "reset time=0\n",
            "note_on channel=0 note=63 velocity=0 time=0\n",
            "control_change channel=0 control=64 value=0 time=0\n",
            "note_on channel=0 note=51 velocity=0 time=0\n",
            "reset time=0\n",
            "aftertouch channel=8 value=0 time=0\n",
            "note_on channel=0 note=63 velocity=0 time=0\n",
            "reset time=0\n",
            "note_on channel=0 note=63 velocity=0 time=0\n",
            "control_change channel=0 control=64 value=0 time=0\n",
            "note_on channel=0 note=62 velocity=66 time=0\n",
            "control_change channel=0 control=64 value=127 time=0\n",
            "note_on channel=0 note=80 velocity=0 time=0\n",
            "reset time=0\n",
            "note_on channel=0 note=80 velocity=0 time=0\n",
            "reset time=0\n",
            "note_on channel=0 note=77 velocity=0 time=0\n",
            "reset time=0\n",
            "program_change channel=0 program=107 time=0\n",
            "note_on channel=0 note=72 velocity=0 time=0\n",
            "reset time=0\n",
            "program_change channel=10 program=47 time=0\n",
            "note_on channel=0 note=70 velocity=0 time=0\n",
            "control_change channel=0 control=64 value=0 time=0\n",
            "reset time=0\n",
            "program_change channel=10 program=14 time=0\n",
            "note_on channel=0 note=62 velocity=0 time=0\n",
            "note_off channel=1 note=5 velocity=67 time=0\n",
            "control_change channel=0 control=64 value=127 time=0\n",
            "note_on channel=0 note=68 velocity=0 time=0\n",
            "note_off channel=1 note=32 velocity=70 time=0\n",
            "reset time=0\n",
            "note_on channel=0 note=68 velocity=0 time=0\n",
            "reset time=0\n",
            "program_change channel=0 program=67 time=0\n",
            "note_on channel=0 note=67 velocity=0 time=0\n",
            "reset time=0\n",
            "program_change channel=10 program=107 time=0\n",
            "note_on channel=0 note=65 velocity=0 time=0\n",
            "control_change channel=0 control=64 value=0 time=0\n",
            "reset time=0\n",
            "aftertouch channel=9 value=65 time=0\n",
            "control_change channel=0 control=64 value=127 time=0\n",
            "reset time=0\n",
            "note_on channel=0 note=63 velocity=0 time=0\n",
            "note_off channel=1 note=32 velocity=62 time=0\n",
            "note_off channel=1 note=32 velocity=60 time=0\n",
            "note_off channel=1 note=32 velocity=58 time=0\n",
            "reset time=0\n",
            "aftertouch channel=11 value=94 time=0\n",
            "note_on channel=0 note=56 velocity=0 time=0\n",
            "reset time=0\n",
            "pitchwheel channel=5 pitch=-8104 time=0\n",
            "note_on channel=0 note=55 velocity=0 time=0\n",
            "control_change channel=0 control=64 value=0 time=0\n",
            "note_on channel=0 note=53 velocity=59 time=0\n",
            "reset time=0\n",
            "aftertouch channel=9 value=0 time=0\n",
            "note_on channel=0 note=53 velocity=0 time=0\n",
            "control_change channel=0 control=64 value=0 time=0\n",
            "note_on channel=0 note=65 velocity=0 time=0\n",
            "reset time=0\n",
            "aftertouch channel=11 value=94 time=0\n",
            "note_on channel=0 note=34 velocity=70 time=0\n",
            "control_change channel=0 control=64 value=127 time=0\n",
            "note_on channel=0 note=53 velocity=63 time=0\n",
            "reset time=0\n",
            "aftertouch channel=9 value=0 time=0\n",
            "note_on channel=0 note=53 velocity=0 time=0\n",
            "control_change channel=0 control=64 value=0 time=0\n",
            "reset time=0\n",
            "note_on channel=0 note=62 velocity=0 time=0\n",
            "reset time=0\n",
            "control_change channel=5 control=3 value=22 time=0\n",
            "note_on channel=0 note=74 velocity=67 time=0\n",
            "control_change channel=0 control=64 value=127 time=0\n",
            "note_on channel=0 note=74 velocity=0 time=0\n",
            "reset time=0\n",
            "note_on channel=0 note=86 velocity=0 time=0\n",
            "reset time=0\n",
            "aftertouch channel=9 value=52 time=0\n",
            "note_on channel=0 note=68 velocity=0 time=0\n",
            "reset time=0\n",
            "program_change channel=10 program=112 time=0\n",
            "note_on channel=0 note=72 velocity=0 time=0\n",
            "reset time=0\n",
            "program_change channel=0 program=82 time=0\n",
            "note_on channel=0 note=70 velocity=0 time=0\n",
            "reset time=0\n",
            "note_on channel=0 note=68 velocity=0 time=0\n",
            "reset time=0\n",
            "note_on channel=0 note=65 velocity=0 time=0\n",
            "reset time=0\n",
            "note_on channel=0 note=86 velocity=0 time=0\n",
            "reset time=0\n",
            "program_change channel=0 program=12 time=0\n",
            "note_on channel=0 note=58 velocity=0 time=0\n",
            "reset time=0\n",
            "control_change channel=5 control=3 value=0 time=0\n",
            "note_on channel=0 note=86 velocity=0 time=0\n",
            "control_change channel=0 control=64 value=0 time=0\n",
            "note_on channel=0 note=75 velocity=0 time=0\n",
            "reset time=0\n",
            "note_on channel=0 note=55 velocity=0 time=0\n",
            "reset time=0\n",
            "aftertouch channel=9 value=12 time=0\n",
            "note_on channel=0 note=56 velocity=0 time=0\n",
            "reset time=0\n",
            "program_change channel=10 program=112 time=0\n",
            "note_on channel=0 note=75 velocity=0 time=0\n",
            "reset time=0\n",
            "program_change channel=0 program=2 time=0\n",
            "note_on channel=0 note=56 velocity=0 time=0\n",
            "reset time=0\n",
            "note_on channel=0 note=55 velocity=0 time=0\n",
            "control_change channel=0 control=64 value=0 time=0\n",
            "note_on channel=0 note=75 velocity=0 time=0\n",
            "reset time=0\n",
            "note_on channel=0 note=51 velocity=0 time=0\n",
            "reset time=0\n",
            "note_on channel=0 note=87 velocity=0 time=0\n",
            "control_change channel=0 control=64 value=0 time=0\n",
            "note_on channel=0 note=76 velocity=0 time=0\n",
            "control_change channel=0 control=64 value=127 time=0\n",
            "note_on channel=0 note=46 velocity=0 time=0\n",
            "reset time=0\n",
            "program_change channel=0 program=12 time=0\n",
            "note_on channel=0 note=44 velocity=0 time=0\n",
            "reset time=0\n",
            "pitchwheel channel=5 pitch=-8104 time=0\n",
            "note_on channel=0 note=88 velocity=0 time=0\n",
            "control_change channel=0 control=64 value=0 time=0\n",
            "note_on channel=0 note=77 velocity=71 time=0\n",
            "reset time=0\n",
            "aftertouch channel=9 value=0 time=0\n",
            "note_on channel=0 note=77 velocity=0 time=0\n",
            "control_change channel=0 control=64 value=0 time=0\n",
            "note_on channel=0 note=89 velocity=0 time=0\n",
            "reset time=0\n",
            "aftertouch channel=11 value=94 time=0\n",
            "note_on channel=0 note=34 velocity=70 time=0\n",
            "control_change channel=0 control=64 value=127 time=0\n",
            "note_on channel=0 note=74 velocity=75 time=0\n",
            "reset time=0\n",
            "aftertouch channel=9 value=0 time=0\n",
            "note_on channel=0 note=74 velocity=0 time=0\n",
            "control_change channel=0 control=64 value=0 time=0\n",
            "reset time=0\n",
            "note_on channel=0 note=86 velocity=0 time=0\n",
            "reset time=0\n",
            "control_change channel=5 control=3 value=22 time=0\n",
            "reset time=0\n",
            "control_change channel=5 control=3 value=0 time=0\n",
            "note_on channel=0 note=75 velocity=80 time=0\n",
            "reset time=0\n",
            "note_off channel=11 note=39 velocity=0 time=0\n",
            "note_on channel=0 note=51 velocity=0 time=0\n",
            "reset time=0\n",
            "program_change channel=11 program=24 time=0\n",
            "note_on channel=0 note=82 velocity=63 time=0\n",
            "reset time=0\n",
            "note_on channel=0 note=82 velocity=70 time=0\n",
            "note_off channel=1 note=112 velocity=68 time=0\n",
            "reset time=0\n",
            "note_off channel=11 note=39 velocity=0 time=0\n",
            "note_on channel=0 note=82 velocity=63 time=0\n",
            "reset time=0\n",
            "program_change channel=11 program=24 time=0\n",
            "note_on channel=0 note=82 velocity=63 time=0\n",
            "reset time=0\n",
            "control_change channel=5 control=3 value=0 time=0\n",
            "note_on channel=0 note=82 velocity=69 time=0\n",
            "note_off channel=1 note=112 velocity=68 time=0\n",
            "reset time=0\n",
            "note_on channel=0 note=53 velocity=60 time=0\n",
            "note_off channel=1 note=112 velocity=46 time=0\n",
            "reset time=0\n",
            "control_change channel=14 control=97 value=0 time=0\n",
            "note_on channel=0 note=53 velocity=33 time=0\n",
            "reset time=0\n",
            "program_change channel=0 program=0 time=0\n",
            "note_on channel=0 note=55 velocity=37 time=0\n",
            "reset time=0\n",
            "note_on channel=0 note=60 velocity=35 time=0\n",
            "note_off channel=2 note=104 velocity=58 time=0\n",
            "reset time=0\n",
            "control_change channel=14 control=97 value=0 time=0\n",
            "note_on channel=0 note=56 velocity=33 time=0\n",
            "reset time=0\n",
            "note_on channel=0 note=55 velocity=37 time=0\n",
            "reset time=0\n",
            "note_off channel=11 note=39 velocity=0 time=0\n",
            "note_on channel=0 note=82 velocity=63 time=0\n",
            "reset time=0\n",
            "program_change channel=11 program=24 time=0\n",
            "note_on channel=0 note=84 velocity=0 time=0\n",
            "reset time=0\n",
            "note_on channel=0 note=81 velocity=0 time=0\n",
            "note_off channel=1 note=112 velocity=68 time=0\n",
            "reset time=0\n",
            "note_off channel=11 note=39 velocity=0 time=0\n",
            "note_on channel=0 note=82 velocity=63 time=0\n",
            "reset time=0\n",
            "program_change channel=11 program=24 time=0\n",
            "note_on channel=0 note=84 velocity=0 time=0\n",
            "reset time=0\n",
            "control_change channel=5 control=3 value=0 time=0\n",
            "note_on channel=0 note=81 velocity=0 time=0\n",
            "note_off channel=1 note=112 velocity=68 time=0\n",
            "reset time=0\n",
            "note_on channel=0 note=53 velocity=60 time=0\n",
            "note_off channel=1 note=112 velocity=46 time=0\n",
            "reset time=0\n",
            "note_on channel=0 note=51 velocity=55 time=0\n",
            "reset time=0\n",
            "reset time=0\n",
            "note_on channel=0 note=47 velocity=0 time=0\n",
            "note_off channel=2 note=104 velocity=58 time=0\n",
            "reset time=0\n",
            "control_change channel=14 control=97 value=0 time=0\n",
            "note_on channel=0 note=56 velocity=33 time=0\n",
            "reset time=0\n",
            "note_on channel=0 note=55 velocity=37 time=0\n",
            "control_change channel=0 control=64 value=127 time=0\n",
            "note_on channel=0 note=39 velocity=0 time=0\n",
            "reset time=0\n",
            "note_on channel=0 note=51 velocity=0 time=0\n",
            "control_change channel=0 control=64 value=0 time=0\n",
            "note_off channel=1 note=42 velocity=64 time=0\n",
            "reset time=0\n",
            "control_change channel=11 control=62 value=0 time=0\n",
            "note_on channel=0 note=68 velocity=0 time=0\n",
            "reset time=0\n",
            "note_on channel=0 note=67 velocity=0 time=0\n",
            "control_change channel=0 control=64 value=0 time=0\n",
            "note_off channel=1 note=16 velocity=64 time=0\n",
            "note_on channel=0 note=39 velocity=0 time=0\n",
            "reset time=0\n",
            "note_off channel=5 note=104 velocity=0 time=0\n",
            "note_on channel=0 note=51 velocity=0 time=0\n",
            "control_change channel=0 control=64 value=0 time=0\n",
            "note_off channel=1 note=1 velocity=64 time=0\n",
            "reset time=0\n",
            "control_change channel=8 control=30 value=0 time=0\n",
            "note_on channel=0 note=74 velocity=0 time=0\n",
            "reset time=0\n",
            "note_on channel=0 note=75 velocity=0 time=0\n",
            "control_change channel=0 control=64 value=0 time=0\n",
            "note_on channel=0 note=39 velocity=0 time=0\n",
            "reset time=0\n",
            "note_off channel=14 note=11 velocity=0 time=0\n",
            "note_on channel=0 note=51 velocity=0 time=0\n",
            "control_change channel=0 control=64 value=0 time=0\n",
            "reset time=0\n",
            "control_change channel=11 control=62 value=0 time=0\n",
            "note_on channel=0 note=74 velocity=0 time=0\n",
            "reset time=0\n",
            "note_on channel=0 note=79 velocity=0 time=0\n",
            "control_change channel=0 control=64 value=0 time=0\n",
            "note_off channel=1 note=1 velocity=64 time=0\n",
            "note_on channel=0 note=39 velocity=0 time=0\n",
            "reset time=0\n",
            "note_on channel=0 note=51 velocity=0 time=0\n",
            "control_change channel=0 control=64 value=0 time=0\n",
            "note_off channel=1 note=21 velocity=64 time=0\n",
            "reset time=0\n",
            "aftertouch channel=8 value=20 time=0\n",
            "note_on channel=0 note=80 velocity=0 time=0\n",
            "reset time=0\n",
            "pitchwheel channel=15 pitch=-8070 time=0\n",
            "note_on channel=0 note=87 velocity=0 time=0\n",
            "control_change channel=0 control=64 value=0 time=0\n",
            "note_off channel=1 note=112 velocity=64 time=0\n",
            "reset time=0\n",
            "aftertouch channel=9 value=0 time=0\n",
            "note_on channel=0 note=39 velocity=0 time=0\n",
            "note_off channel=3 note=96 velocity=63 time=0\n",
            "control_change channel=0 control=64 value=0 time=0\n",
            "reset time=0\n",
            "note_on channel=0 note=60 velocity=40 time=0\n",
            "note_off channel=1 note=112 velocity=48 time=0\n",
            "control_change channel=0 control=64 value=127 time=0\n",
            "note_on channel=0 note=47 velocity=0 time=0\n",
            "control_change channel=0 control=64 value=0 time=0\n",
            "reset time=0\n",
            "note_on channel=0 note=48 velocity=0 time=0\n",
            "reset time=0\n",
            "note_on channel=0 note=65 velocity=38 time=0\n",
            "reset time=0\n",
            "note_on channel=0 note=63 velocity=45 time=0\n",
            "note_off channel=3 note=96 velocity=51 time=0\n",
            "reset time=0\n",
            "note_on channel=0 note=60 velocity=40 time=0\n",
            "note_off channel=1 note=112 velocity=48 time=0\n",
            "control_change channel=0 control=64 value=127 time=0\n",
            "note_on channel=0 note=47 velocity=0 time=0\n",
            "control_change channel=0 control=64 value=0 time=0\n",
            "reset time=0\n",
            "note_on channel=0 note=48 velocity=0 time=0\n",
            "reset time=0\n",
            "note_on channel=0 note=68 velocity=38 time=0\n",
            "reset time=0\n",
            "note_on channel=0 note=67 velocity=45 time=0\n",
            "note_off channel=3 note=96 velocity=55 time=0\n",
            "reset time=0\n",
            "note_on channel=0 note=60 velocity=40 time=0\n",
            "note_off channel=1 note=112 velocity=60 time=0\n",
            "control_change channel=0 control=64 value=127 time=0\n",
            "note_on channel=0 note=59 velocity=0 time=0\n",
            "control_change channel=0 control=64 value=0 time=0\n",
            "reset time=0\n",
            "note_on channel=0 note=60 velocity=0 time=0\n",
            "reset time=0\n",
            "aftertouch channel=13 value=0 time=0\n",
            "note_on channel=0 note=72 velocity=38 time=0\n",
            "reset time=0\n",
            "note_on channel=0 note=72 velocity=45 time=0\n",
            "control_change channel=0 control=64 value=127 time=0\n",
            "note_on channel=0 note=72 velocity=0 time=0\n",
            "control_change channel=0 control=64 value=0 time=0\n",
            "note_on channel=0 note=75 velocity=0 time=0\n",
            "reset time=0\n",
            "pitchwheel channel=5 pitch=7256 time=0\n",
            "reset time=0\n",
            "note_on channel=0 note=74 velocity=0 time=0\n",
            "control_change channel=0 control=64 value=0 time=0\n",
            "note_on channel=0 note=77 velocity=0 time=0\n",
            "note_off channel=1 note=112 velocity=75 time=0\n",
            "control_change channel=0 control=64 value=0 time=0\n",
            "reset time=0\n",
            "note_on channel=0 note=74 velocity=0 time=0\n",
            "reset time=0\n",
            "note_on channel=0 note=72 velocity=0 time=0\n",
            "control_change channel=0 control=64 value=0 time=0\n",
            "note_on channel=0 note=55 velocity=0 time=0\n",
            "note_off channel=1 note=112 velocity=55 time=0\n",
            "reset time=0\n",
            "note_on channel=0 note=43 velocity=0 time=0\n",
            "control_change channel=0 control=64 value=127 time=0\n",
            "note_on channel=0 note=42 velocity=0 time=0\n",
            "control_change channel=0 control=64 value=0 time=0\n",
            "reset time=0\n",
            "note_on channel=0 note=43 velocity=0 time=0\n",
            "reset time=0\n",
            "note_on channel=0 note=60 velocity=38 time=0\n",
            "reset time=0\n",
            "note_on channel=0 note=59 velocity=45 time=0\n",
            "note_off channel=3 note=96 velocity=47 time=0\n",
            "note_off channel=1 note=112 velocity=55 time=0\n",
            "reset time=0\n",
            "note_on channel=0 note=43 velocity=0 time=0\n",
            "control_change channel=0 control=64 value=127 time=0\n",
            "note_on channel=0 note=42 velocity=0 time=0\n",
            "control_change channel=0 control=64 value=0 time=0\n",
            "reset time=0\n",
            "note_on channel=0 note=43 velocity=0 time=0\n",
            "reset time=0\n",
            "note_on channel=0 note=63 velocity=38 time=0\n",
            "reset time=0\n",
            "note_off channel=5 note=104 velocity=0 time=0\n",
            "note_on channel=0 note=62 velocity=45 time=0\n",
            "note_off channel=3 note=96 velocity=50 time=0\n",
            "note_off channel=1 note=112 velocity=55 time=0\n",
            "reset time=0\n",
            "note_on channel=0 note=59 velocity=51 time=0\n",
            "reset time=0\n",
            "note_on channel=0 note=80 velocity=60 time=0\n",
            "reset time=0\n",
            "note_on channel=0 note=79 velocity=63 time=0\n",
            "reset time=0\n",
            "note_on channel=0 note=74 velocity=54 time=0\n",
            "reset time=0\n",
            "note_on channel=0 note=72 velocity=62 time=0\n",
            "control_change channel=0 control=64 value=127 time=0\n",
            "note_on channel=0 note=60 velocity=0 time=0\n",
            "reset time=0\n",
            "note_on channel=0 note=72 velocity=0 time=0\n",
            "control_change channel=0 control=64 value=0 time=0\n",
            "note_on channel=0 note=60 velocity=0 time=0\n",
            "control_change channel=0 control=64 value=0 time=0\n",
            "note_on channel=0 note=70 velocity=0 time=0\n",
            "reset time=0\n",
            "note_on channel=0 note=72 velocity=0 time=0\n",
            "reset time=0\n",
            "note_on channel=0 note=84 velocity=52 time=0\n",
            "reset time=0\n",
            "note_on channel=0 note=84 velocity=60 time=0\n",
            "control_change channel=0 control=64 value=127 time=0\n",
            "reset time=0\n",
            "note_on channel=0 note=60 velocity=0 time=0\n",
            "control_change channel=0 control=64 value=0 time=0\n",
            "note_on channel=0 note=60 velocity=0 time=0\n",
            "control_change channel=0 control=64 value=0 time=0\n",
            "note_on channel=0 note=71 velocity=0 time=0\n",
            "reset time=0\n",
            "program_change channel=14 program=81 time=0\n",
            "note_on channel=0 note=84 velocity=0 time=0\n",
            "reset time=0\n",
            "note_on channel=0 note=83 velocity=0 time=0\n",
            "control_change channel=0 control=64 value=0 time=0\n",
            "note_on channel=0 note=60 velocity=0 time=0\n",
            "control_change channel=0 control=64 value=0 time=0\n",
            "note_on channel=0 note=67 velocity=0 time=0\n",
            "reset time=0\n",
            "note_on channel=0 note=72 velocity=0 time=0\n",
            "control_change channel=0 control=64 value=127 time=0\n",
            "note_on channel=0 note=60 velocity=0 time=0\n",
            "control_change channel=0 control=64 value=0 time=0\n",
            "note_on channel=0 note=70 velocity=0 time=0\n",
            "reset time=0\n",
            "note_on channel=0 note=72 velocity=0 time=0\n",
            "reset time=0\n",
            "note_on channel=0 note=84 velocity=52 time=0\n",
            "reset time=0\n",
            "note_on channel=0 note=84 velocity=60 time=0\n",
            "control_change channel=0 control=64 value=127 time=0\n",
            "note_on channel=0 note=60 velocity=0 time=0\n",
            "reset time=0\n",
            "program_change channel=0 program=0 time=0\n",
            "note_on channel=0 note=84 velocity=0 time=0\n",
            "control_change channel=0 control=64 value=0 time=0\n",
            "note_on channel=0 note=86 velocity=0 time=0\n",
            "reset time=0\n",
            "note_on channel=0 note=84 velocity=0 time=0\n",
            "reset time=0\n",
            "note_on channel=0 note=89 velocity=0 time=0\n",
            "control_change channel=0 control=64 value=0 time=0\n",
            "note_on channel=0 note=60 velocity=0 time=0\n",
            "control_change channel=0 control=64 value=0 time=0\n",
            "note_on channel=0 note=71 velocity=0 time=0\n",
            "reset time=0\n",
            "note_on channel=0 note=84 velocity=0 time=0\n",
            "reset time=0\n",
            "note_on channel=0 note=83 velocity=0 time=0\n",
            "control_change channel=0 control=64 value=0 time=0\n",
            "note_on channel=0 note=72 velocity=44 time=0\n",
            "control_change channel=0 control=64 value=127 time=0\n",
            "note_on channel=0 note=84 velocity=0 time=0\n",
            "control_change channel=0 control=64 value=0 time=0\n",
            "note_on channel=0 note=72 velocity=0 time=0\n",
            "control_change channel=0 control=64 value=127 time=0\n",
            "reset time=0\n",
            "note_on channel=9 note=124 velocity=0 time=0\n",
            "note_on channel=0 note=86 velocity=0 time=0\n",
            "reset time=0\n",
            "note_on channel=0 note=84 velocity=0 time=0\n",
            "control_change channel=0 control=64 value=0 time=0\n",
            "note_on channel=0 note=83 velocity=0 time=0\n",
            "control_change channel=0 control=64 value=0 time=0\n",
            "note_on channel=0 note=80 velocity=0 time=0\n",
            "control_change channel=0 control=64 value=127 time=0\n",
            "reset time=0\n",
            "note_on channel=9 note=124 velocity=0 time=0\n",
            "note_on channel=0 note=75 velocity=0 time=0\n",
            "reset time=0\n",
            "note_on channel=0 note=74 velocity=0 time=0\n",
            "control_change channel=0 control=64 value=0 time=0\n",
            "note_on channel=0 note=72 velocity=0 time=0\n",
            "control_change channel=0 control=64 value=0 time=0\n",
            "note_on channel=0 note=72 velocity=0 time=0\n",
            "control_change channel=0 control=64 value=127 time=0\n",
            "reset time=0\n",
            "note_on channel=0 note=74 velocity=0 time=0\n",
            "reset time=0\n",
            "note_on channel=0 note=72 velocity=0 time=0\n",
            "control_change channel=0 control=64 value=0 time=0\n",
            "note_on channel=0 note=71 velocity=0 time=0\n",
            "control_change channel=0 control=64 value=127 time=0\n",
            "note_on channel=0 note=72 velocity=0 time=0\n",
            "control_change channel=0 control=64 value=0 time=0\n",
            "note_on channel=0 note=71 velocity=0 time=0\n",
            "control_change channel=0 control=64 value=127 time=0\n",
            "reset time=0\n",
            "note_on channel=9 note=124 velocity=0 time=0\n",
            "note_on channel=0 note=63 velocity=0 time=0\n",
            "reset time=0\n",
            "note_on channel=0 note=62 velocity=0 time=0\n",
            "control_change channel=0 control=64 value=0 time=0\n",
            "note_on channel=0 note=60 velocity=0 time=0\n",
            "control_change channel=0 control=64 value=0 time=0\n",
            "note_on channel=0 note=60 velocity=0 time=0\n",
            "control_change channel=0 control=64 value=127 time=0\n",
            "reset time=0\n",
            "note_on channel=5 note=30 velocity=0 time=0\n",
            "note_on channel=0 note=62 velocity=0 time=0\n",
            "reset time=0\n",
            "note_off channel=14 note=11 velocity=0 time=0\n",
            "note_on channel=0 note=60 velocity=0 time=0\n",
            "control_change channel=0 control=64 value=0 time=0\n",
            "note_on channel=0 note=59 velocity=0 time=0\n",
            "control_change channel=0 control=64 value=0 time=0\n",
            "note_on channel=0 note=55 velocity=0 time=0\n",
            "control_change channel=0 control=64 value=0 time=0\n",
            "note_on channel=0 note=55 velocity=0 time=0\n",
            "control_change channel=0 control=64 value=0 time=0\n",
            "note_on channel=0 note=62 velocity=0 time=0\n",
            "control_change channel=0 control=64 value=0 time=0\n",
            "note_on channel=0 note=55 velocity=0 time=0\n",
            "control_change channel=0 control=64 value=0 time=0\n",
            "note_on channel=0 note=63 velocity=0 time=0\n",
            "control_change channel=0 control=64 value=0 time=0\n",
            "note_on channel=0 note=55 velocity=0 time=0\n",
            "control_change channel=0 control=64 value=0 time=0\n",
            "note_on channel=0 note=62 velocity=0 time=0\n",
            "control_change channel=0 control=64 value=0 time=0\n",
            "note_on channel=0 note=55 velocity=0 time=0\n",
            "control_change channel=0 control=64 value=0 time=0\n",
            "reset time=0\n",
            "note_on channel=0 note=63 velocity=0 time=0\n",
            "reset time=0\n",
            "note_on channel=0 note=60 velocity=0 time=0\n",
            "control_change channel=0 control=64 value=0 time=0\n",
            "reset time=0\n",
            "control_change channel=8 control=30 value=0 time=0\n",
            "note_on channel=0 note=43 velocity=0 time=0\n",
            "note_off channel=1 note=112 velocity=58 time=0\n",
            "reset time=0\n",
            "program_change channel=7 program=0 time=0\n",
            "note_on channel=0 note=67 velocity=40 time=0\n",
            "reset time=0\n",
            "pitchwheel channel=2 pitch=-8192 time=0\n",
            "note_on channel=0 note=39 velocity=0 time=0\n",
            "note_off channel=2 note=104 velocity=58 time=0\n",
            "reset time=0\n",
            "tune_request time=0\n",
            "reset time=0\n",
            "note_on channel=0 note=56 velocity=37 time=0\n",
            "note_off channel=7 note=64 velocity=53 time=0\n",
            "reset time=0\n",
            "control_change channel=8 control=30 value=0 time=0\n",
            "note_on channel=0 note=58 velocity=40 time=0\n",
            "reset time=0\n",
            "program_change channel=7 program=0 time=0\n",
            "note_on channel=0 note=67 velocity=40 time=0\n",
            "reset time=0\n",
            "pitchwheel channel=2 pitch=-8192 time=0\n",
            "note_on channel=0 note=39 velocity=0 time=0\n",
            "note_off channel=2 note=104 velocity=60 time=0\n",
            "reset time=0\n",
            "tune_request time=0\n",
            "reset time=0\n",
            "pitchwheel channel=2 pitch=-8192 time=0\n",
            "note_on channel=0 note=50 velocity=31 time=0\n",
            "note_off channel=7 note=64 velocity=46 time=0\n",
            "reset time=0\n",
            "control_change channel=8 control=30 value=0 time=0\n",
            "note_on channel=0 note=58 velocity=40 time=0\n",
            "reset time=0\n",
            "program_change channel=7 program=0 time=0\n",
            "note_on channel=0 note=67 velocity=40 time=0\n",
            "reset time=0\n",
            "pitchwheel channel=2 pitch=-8192 time=0\n",
            "note_on channel=0 note=39 velocity=0 time=0\n",
            "note_off channel=2 note=104 velocity=58 time=0\n",
            "reset time=0\n",
            "polytouch channel=9 note=76 value=120 time=0\n",
            "reset time=0\n",
            "note_on channel=0 note=44 velocity=28 time=0\n",
            "reset time=0\n",
            "control_change channel=5 control=3 value=0 time=0\n",
            "note_on channel=0 note=72 velocity=72 time=0\n",
            "note_off channel=3 note=96 velocity=56 time=0\n",
            "note_off channel=3 note=96 velocity=60 time=0\n",
            "note_off channel=1 note=112 velocity=72 time=0\n",
            "reset time=0\n",
            "note_on channel=0 note=68 velocity=50 time=0\n",
            "reset time=0\n",
            "note_on channel=0 note=67 velocity=53 time=0\n",
            "note_off channel=1 note=112 velocity=67 time=0\n",
            "note_off channel=1 note=112 velocity=65 time=0\n",
            "note_off channel=1 note=112 velocity=34 time=0\n",
            "reset time=0\n",
            "note_on channel=0 note=38 velocity=45 time=0\n",
            "reset time=0\n",
            "note_on channel=0 note=58 velocity=0 time=0\n",
            "reset time=0\n",
            "program_change channel=0 program=0 time=0\n",
            "note_on channel=0 note=55 velocity=0 time=0\n",
            "note_off channel=1 note=112 velocity=70 time=0\n",
            "reset time=0\n",
            "note_on channel=0 note=67 velocity=50 time=0\n",
            "reset time=0\n",
            "program_change channel=10 program=0 time=0\n",
            "note_on channel=0 note=39 velocity=0 time=0\n",
            "note_off channel=1 note=112 velocity=67 time=0\n",
            "note_off channel=1 note=112 velocity=65 time=0\n",
            "note_off channel=1 note=112 velocity=34 time=0\n",
            "reset time=0\n",
            "note_on channel=0 note=38 velocity=45 time=0\n",
            "reset time=0\n",
            "note_on channel=0 note=58 velocity=0 time=0\n",
            "reset time=0\n",
            "note_on channel=0 note=39 velocity=0 time=0\n",
            "reset time=0\n",
            "aftertouch channel=9 value=0 time=0\n",
            "note_on channel=0 note=55 velocity=0 time=0\n",
            "note_off channel=1 note=112 velocity=82 time=0\n",
            "reset time=0\n",
            "pitchwheel channel=5 pitch=-8104 time=0\n",
            "note_on channel=0 note=79 velocity=50 time=0\n",
            "reset time=0\n",
            "note_on channel=0 note=46 velocity=0 time=0\n",
            "note_off channel=1 note=112 velocity=67 time=0\n",
            "note_off channel=1 note=112 velocity=65 time=0\n",
            "reset time=0\n",
            "program_change channel=0 program=0 time=0\n",
            "note_on channel=0 note=60 velocity=55 time=0\n",
            "reset time=0\n",
            "note_on channel=0 note=62 velocity=48 time=0\n",
            "reset time=0\n",
            "control_change channel=5 control=3 value=10 time=0\n",
            "note_on channel=0 note=63 velocity=48 time=0\n",
            "reset time=0\n",
            "reset time=0\n",
            "aftertouch channel=9 value=15 time=0\n",
            "reset time=0\n",
            "program_change channel=10 program=15 time=0\n",
            "reset time=0\n",
            "program_change channel=0 program=14 time=0\n",
            "control_change channel=0 control=64 value=127 time=0\n",
            "reset time=0\n",
            "reset time=0\n",
            "note_on channel=0 note=63 velocity=0 time=0\n",
            "reset time=0\n",
            "program_change channel=10 program=15 time=0\n",
            "reset time=0\n",
            "aftertouch channel=9 value=15 time=0\n",
            "reset time=0\n",
            "note_on channel=0 note=75 velocity=0 time=0\n",
            "reset time=0\n",
            "control_change channel=5 control=3 value=30 time=0\n",
            "reset time=0\n",
            "reset time=0\n",
            "reset time=0\n",
            "note_on channel=0 note=63 velocity=0 time=0\n",
            "reset time=0\n",
            "reset time=0\n",
            "program_change channel=10 program=70 time=0\n",
            "note_on channel=0 note=75 velocity=0 time=0\n",
            "reset time=0\n",
            "reset time=0\n",
            "aftertouch channel=9 value=15 time=0\n",
            "reset time=0\n",
            "program_change channel=0 program=15 time=0\n",
            "reset time=0\n",
            "reset time=0\n",
            "note_on channel=0 note=63 velocity=0 time=0\n",
            "reset time=0\n",
            "reset time=0\n",
            "reset time=0\n",
            "reset time=0\n",
            "program_change channel=0 program=10 time=0\n",
            "note_on channel=0 note=75 velocity=0 time=0\n",
            "reset time=0\n",
            "program_change channel=10 program=15 time=0\n",
            "reset time=0\n",
            "aftertouch channel=9 value=15 time=0\n",
            "reset time=0\n",
            "control_change channel=5 control=3 value=15 time=0\n",
            "reset time=0\n",
            "control_change channel=8 control=30 value=30 time=0\n",
            "reset time=0\n",
            "aftertouch channel=9 value=30 time=0\n",
            "reset time=0\n",
            "program_change channel=0 program=10 time=0\n",
            "note_on channel=0 note=63 velocity=0 time=0\n",
            "reset time=0\n",
            "reset time=0\n",
            "reset time=0\n",
            "reset time=0\n",
            "program_change channel=0 program=10 time=0\n",
            "note_on channel=0 note=75 velocity=0 time=0\n",
            "reset time=0\n",
            "program_change channel=10 program=6 time=0\n",
            "control_change channel=0 control=64 value=0 time=0\n",
            "reset time=0\n",
            "aftertouch channel=9 value=15 time=0\n",
            "reset time=0\n",
            "reset time=0\n",
            "control_change channel=5 control=3 value=15 time=0\n",
            "reset time=0\n",
            "control_change channel=8 control=30 value=15 time=0\n",
            "reset time=0\n",
            "control_change channel=11 control=62 value=12 time=0\n",
            "control_change channel=0 control=64 value=127 time=0\n",
            "reset time=0\n",
            "control_change channel=14 control=97 value=25 time=0\n",
            "note_on channel=0 note=63 velocity=0 time=0\n",
            "reset time=0\n",
            "control_change channel=11 control=62 value=15 time=0\n",
            "reset time=0\n",
            "program_change channel=10 program=15 time=0\n",
            "reset time=0\n",
            "program_change channel=0 program=15 time=0\n",
            "reset time=0\n",
            "reset time=0\n",
            "note_on channel=0 note=75 velocity=0 time=0\n",
            "reset time=0\n",
            "reset time=0\n",
            "reset time=0\n",
            "reset time=0\n",
            "reset time=0\n",
            "program_change channel=0 program=30 time=0\n",
            "reset time=0\n",
            "program_change channel=10 program=10 time=0\n",
            "note_on channel=0 note=63 velocity=0 time=0\n",
            "reset time=0\n",
            "program_change channel=0 program=15 time=0\n",
            "reset time=0\n",
            "reset time=0\n",
            "reset time=0\n",
            "reset time=0\n",
            "program_change channel=0 program=10 time=0\n",
            "note_on channel=0 note=75 velocity=0 time=0\n",
            "control_change channel=0 control=64 value=0 time=0\n",
            "note_on channel=0 note=56 velocity=0 time=0\n",
            "reset time=0\n",
            "program_change channel=15 program=0 time=0\n",
            "note_on channel=0 note=75 velocity=0 time=0\n",
            "reset time=0\n",
            "control_change channel=5 control=3 value=0 time=0\n",
            "note_on channel=0 note=75 velocity=0 time=0\n",
            "control_change channel=0 control=64 value=0 time=0\n",
            "reset time=0\n",
            "reset time=0\n",
            "aftertouch channel=9 value=15 time=0\n",
            "reset time=0\n",
            "program_change channel=10 program=15 time=0\n",
            "reset time=0\n",
            "program_change channel=0 program=15 time=0\n",
            "reset time=0\n",
            "reset time=0\n",
            "note_on channel=0 note=63 velocity=0 time=0\n",
            "control_change channel=0 control=64 value=127 time=0\n",
            "reset time=0\n",
            "program_change channel=10 program=15 time=0\n",
            "reset time=0\n",
            "aftertouch channel=9 value=15 time=0\n",
            "reset time=0\n",
            "note_on channel=0 note=75 velocity=0 time=0\n",
            "reset time=0\n",
            "control_change channel=5 control=3 value=30 time=0\n",
            "reset time=0\n",
            "reset time=0\n",
            "reset time=0\n",
            "note_on channel=0 note=63 velocity=0 time=0\n",
            "reset time=0\n",
            "reset time=0\n",
            "program_change channel=10 program=70 time=0\n",
            "note_on channel=0 note=75 velocity=0 time=0\n",
            "reset time=0\n",
            "reset time=0\n",
            "aftertouch channel=9 value=15 time=0\n",
            "reset time=0\n",
            "program_change channel=0 program=15 time=0\n",
            "reset time=0\n",
            "reset time=0\n",
            "note_on channel=0 note=63 velocity=0 time=0\n",
            "reset time=0\n",
            "reset time=0\n",
            "reset time=0\n",
            "reset time=0\n",
            "program_change channel=0 program=10 time=0\n",
            "note_on channel=0 note=75 velocity=0 time=0\n",
            "reset time=0\n",
            "program_change channel=10 program=15 time=0\n",
            "reset time=0\n",
            "aftertouch channel=9 value=15 time=0\n",
            "reset time=0\n",
            "control_change channel=5 control=3 value=15 time=0\n",
            "reset time=0\n",
            "control_change channel=8 control=30 value=30 time=0\n",
            "reset time=0\n",
            "aftertouch channel=9 value=30 time=0\n",
            "reset time=0\n",
            "program_change channel=0 program=10 time=0\n",
            "note_on channel=0 note=63 velocity=0 time=0\n",
            "reset time=0\n",
            "reset time=0\n",
            "reset time=0\n",
            "reset time=0\n",
            "program_change channel=0 program=10 time=0\n",
            "note_on channel=0 note=75 velocity=0 time=0\n",
            "reset time=0\n",
            "program_change channel=10 program=6 time=0\n",
            "control_change channel=0 control=64 value=0 time=0\n",
            "reset time=0\n",
            "aftertouch channel=9 value=15 time=0\n",
            "reset time=0\n",
            "reset time=0\n",
            "control_change channel=5 control=3 value=15 time=0\n",
            "reset time=0\n",
            "control_change channel=8 control=30 value=15 time=0\n",
            "reset time=0\n",
            "control_change channel=11 control=62 value=12 time=0\n",
            "control_change channel=0 control=64 value=127 time=0\n",
            "reset time=0\n",
            "control_change channel=14 control=97 value=25 time=0\n",
            "note_on channel=0 note=63 velocity=0 time=0\n",
            "reset time=0\n",
            "control_change channel=11 control=62 value=15 time=0\n",
            "reset time=0\n",
            "program_change channel=10 program=15 time=0\n",
            "reset time=0\n",
            "program_change channel=0 program=15 time=0\n",
            "reset time=0\n",
            "reset time=0\n",
            "note_on channel=0 note=75 velocity=0 time=0\n",
            "reset time=0\n",
            "reset time=0\n",
            "reset time=0\n",
            "reset time=0\n",
            "reset time=0\n",
            "program_change channel=0 program=30 time=0\n",
            "reset time=0\n",
            "program_change channel=10 program=10 time=0\n",
            "note_on channel=0 note=63 velocity=0 time=0\n",
            "reset time=0\n",
            "program_change channel=0 program=15 time=0\n",
            "reset time=0\n",
            "reset time=0\n",
            "reset time=0\n",
            "reset time=0\n",
            "program_change channel=0 program=10 time=0\n",
            "note_on channel=0 note=75 velocity=0 time=0\n",
            "control_change channel=0 control=64 value=0 time=0\n",
            "note_on channel=0 note=60 velocity=0 time=0\n",
            "reset time=0\n",
            "program_change channel=15 program=0 time=0\n",
            "note_on channel=0 note=75 velocity=0 time=0\n",
            "control_change channel=0 control=64 value=0 time=0\n",
            "reset time=0\n",
            "aftertouch channel=9 value=30 time=0\n",
            "reset time=0\n",
            "control_change channel=8 control=30 value=60 time=0\n",
            "reset time=0\n",
            "program_change channel=10 program=6 time=0\n",
            "control_change channel=0 control=64 value=127 time=0\n",
            "reset time=0\n",
            "program_change channel=0 program=90 time=0\n",
            "reset time=0\n",
            "aftertouch channel=9 value=27 time=0\n",
            "note_on channel=0 note=58 velocity=0 time=0\n",
            "reset time=0\n",
            "program_change channel=10 program=30 time=0\n",
            "reset time=0\n",
            "reset time=0\n",
            "note_on channel=0 note=51 velocity=0 time=0\n",
            "reset time=0\n",
            "program_change channel=0 program=60 time=0\n",
            "reset time=0\n",
            "program_change channel=10 program=27 time=0\n",
            "note_on channel=0 note=63 velocity=0 time=0\n",
            "reset time=0\n",
            "aftertouch channel=9 value=30 time=0\n",
            "reset time=0\n",
            "control_change channel=5 control=3 value=60 time=0\n",
            "reset time=0\n",
            "note_on channel=0 note=51 velocity=0 time=0\n",
            "reset time=0\n",
            "reset time=0\n",
            "note_on channel=0 note=63 velocity=0 time=0\n",
            "reset time=0\n",
            "reset time=0\n",
            "reset time=0\n",
            "control_change channel=5 control=3 value=57 time=0\n",
            "note_on channel=0 note=51 velocity=0 time=0\n",
            "reset time=0\n",
            "program_change channel=0 program=87 time=0\n",
            "note_on channel=0 note=63 velocity=0 time=0\n",
            "control_change channel=0 control=64 value=0 time=0\n",
            "reset time=0\n",
            "note_on channel=0 note=51 velocity=0 time=0\n",
            "reset time=0\n",
            "control_change channel=5 control=3 value=87 time=0\n",
            "note_on channel=0 note=63 velocity=0 time=0\n",
            "reset time=0\n",
            "reset time=0\n",
            "aftertouch channel=9 value=30 time=0\n",
            "reset time=0\n",
            "program_change channel=10 program=30 time=0\n",
            "reset time=0\n",
            "program_change channel=0 program=27 time=0\n",
            "note_on channel=0 note=51 velocity=0 time=0\n",
            "reset time=0\n",
            "note_on channel=0 note=63 velocity=0 time=0\n",
            "control_change channel=0 control=64 value=0 time=0\n",
            "note_on channel=0 note=51 velocity=0 time=0\n",
            "reset time=0\n",
            "aftertouch channel=12 value=0 time=0\n",
            "note_on channel=0 note=63 velocity=0 time=0\n",
            "reset time=0\n",
            "note_on channel=0 note=63 velocity=0 time=0\n",
            "control_change channel=0 control=64 value=0 time=0\n",
            "note_on channel=0 note=62 velocity=66 time=0\n",
            "control_change channel=0 control=64 value=127 time=0\n",
            "note_on channel=0 note=80 velocity=0 time=0\n",
            "reset time=0\n",
            "note_on channel=0 note=80 velocity=0 time=0\n",
            "reset time=0\n",
            "note_on channel=0 note=77 velocity=0 time=0\n",
            "reset time=0\n",
            "program_change channel=0 program=107 time=0\n",
            "note_on channel=0 note=72 velocity=0 time=0\n",
            "reset time=0\n",
            "program_change channel=10 program=47 time=0\n",
            "note_on channel=0 note=70 velocity=0 time=0\n",
            "control_change channel=0 control=64 value=0 time=0\n",
            "reset time=0\n",
            "program_change channel=10 program=14 time=0\n",
            "note_on channel=0 note=62 velocity=0 time=0\n",
            "note_off channel=1 note=5 velocity=67 time=0\n",
            "control_change channel=0 control=64 value=127 time=0\n",
            "note_on channel=0 note=68 velocity=0 time=0\n",
            "note_off channel=1 note=32 velocity=70 time=0\n",
            "reset time=0\n",
            "note_on channel=0 note=68 velocity=0 time=0\n",
            "reset time=0\n",
            "program_change channel=0 program=67 time=0\n",
            "note_on channel=0 note=67 velocity=0 time=0\n",
            "reset time=0\n",
            "program_change channel=10 program=107 time=0\n",
            "note_on channel=0 note=65 velocity=0 time=0\n",
            "control_change channel=0 control=64 value=0 time=0\n",
            "reset time=0\n",
            "aftertouch channel=9 value=65 time=0\n",
            "control_change channel=0 control=64 value=127 time=0\n",
            "reset time=0\n",
            "note_on channel=0 note=63 velocity=0 time=0\n",
            "note_off channel=1 note=32 velocity=62 time=0\n",
            "note_off channel=1 note=32 velocity=60 time=0\n",
            "note_off channel=1 note=32 velocity=58 time=0\n",
            "reset time=0\n",
            "aftertouch channel=11 value=94 time=0\n",
            "note_on channel=0 note=56 velocity=0 time=0\n",
            "reset time=0\n",
            "pitchwheel channel=5 pitch=-8104 time=0\n",
            "note_on channel=0 note=55 velocity=0 time=0\n",
            "control_change channel=0 control=64 value=0 time=0\n",
            "note_on channel=0 note=53 velocity=59 time=0\n",
            "reset time=0\n",
            "aftertouch channel=9 value=0 time=0\n",
            "note_on channel=0 note=53 velocity=0 time=0\n",
            "control_change channel=0 control=64 value=0 time=0\n",
            "note_on channel=0 note=65 velocity=0 time=0\n",
            "reset time=0\n",
            "aftertouch channel=11 value=94 time=0\n",
            "note_on channel=0 note=34 velocity=70 time=0\n",
            "control_change channel=0 control=64 value=127 time=0\n",
            "note_on channel=0 note=53 velocity=63 time=0\n",
            "reset time=0\n",
            "aftertouch channel=9 value=0 time=0\n",
            "note_on channel=0 note=53 velocity=0 time=0\n",
            "control_change channel=0 control=64 value=0 time=0\n",
            "reset time=0\n",
            "note_on channel=0 note=62 velocity=0 time=0\n",
            "reset time=0\n",
            "control_change channel=5 control=3 value=22 time=0\n",
            "note_on channel=0 note=74 velocity=67 time=0\n",
            "control_change channel=0 control=64 value=127 time=0\n",
            "note_on channel=0 note=74 velocity=0 time=0\n",
            "reset time=0\n",
            "note_on channel=0 note=86 velocity=0 time=0\n",
            "reset time=0\n",
            "aftertouch channel=9 value=52 time=0\n",
            "note_on channel=0 note=68 velocity=0 time=0\n",
            "reset time=0\n",
            "program_change channel=10 program=112 time=0\n",
            "note_on channel=0 note=72 velocity=0 time=0\n",
            "reset time=0\n",
            "program_change channel=0 program=82 time=0\n",
            "note_on channel=0 note=70 velocity=0 time=0\n",
            "reset time=0\n",
            "note_on channel=0 note=68 velocity=0 time=0\n",
            "reset time=0\n",
            "note_on channel=0 note=65 velocity=0 time=0\n",
            "reset time=0\n",
            "note_on channel=0 note=86 velocity=0 time=0\n",
            "reset time=0\n",
            "program_change channel=0 program=12 time=0\n",
            "note_on channel=0 note=58 velocity=0 time=0\n",
            "reset time=0\n",
            "control_change channel=5 control=3 value=0 time=0\n",
            "note_on channel=0 note=86 velocity=0 time=0\n",
            "control_change channel=0 control=64 value=0 time=0\n",
            "note_on channel=0 note=75 velocity=0 time=0\n",
            "reset time=0\n",
            "note_on channel=0 note=55 velocity=0 time=0\n",
            "reset time=0\n",
            "aftertouch channel=9 value=12 time=0\n",
            "note_on channel=0 note=56 velocity=0 time=0\n",
            "reset time=0\n",
            "program_change channel=10 program=112 time=0\n",
            "note_on channel=0 note=75 velocity=0 time=0\n",
            "reset time=0\n",
            "program_change channel=0 program=2 time=0\n",
            "note_on channel=0 note=56 velocity=0 time=0\n",
            "reset time=0\n",
            "note_on channel=0 note=55 velocity=0 time=0\n",
            "control_change channel=0 control=64 value=0 time=0\n",
            "note_on channel=0 note=75 velocity=0 time=0\n",
            "reset time=0\n",
            "note_on channel=0 note=51 velocity=0 time=0\n",
            "reset time=0\n",
            "note_on channel=0 note=87 velocity=0 time=0\n",
            "control_change channel=0 control=64 value=0 time=0\n",
            "note_on channel=0 note=76 velocity=0 time=0\n",
            "control_change channel=0 control=64 value=127 time=0\n",
            "note_on channel=0 note=46 velocity=0 time=0\n",
            "reset time=0\n",
            "program_change channel=0 program=12 time=0\n",
            "note_on channel=0 note=44 velocity=0 time=0\n",
            "reset time=0\n",
            "pitchwheel channel=5 pitch=-8104 time=0\n",
            "note_on channel=0 note=88 velocity=0 time=0\n",
            "control_change channel=0 control=64 value=0 time=0\n",
            "note_on channel=0 note=77 velocity=71 time=0\n",
            "reset time=0\n",
            "aftertouch channel=9 value=0 time=0\n",
            "note_on channel=0 note=77 velocity=0 time=0\n",
            "control_change channel=0 control=64 value=0 time=0\n",
            "note_on channel=0 note=89 velocity=0 time=0\n",
            "reset time=0\n",
            "aftertouch channel=11 value=94 time=0\n",
            "note_on channel=0 note=34 velocity=70 time=0\n",
            "control_change channel=0 control=64 value=127 time=0\n",
            "note_on channel=0 note=74 velocity=75 time=0\n",
            "reset time=0\n",
            "aftertouch channel=9 value=0 time=0\n",
            "note_on channel=0 note=74 velocity=0 time=0\n",
            "control_change channel=0 control=64 value=0 time=0\n",
            "reset time=0\n",
            "note_on channel=0 note=86 velocity=0 time=0\n",
            "reset time=0\n",
            "control_change channel=5 control=3 value=22 time=0\n",
            "reset time=0\n",
            "control_change channel=5 control=3 value=0 time=0\n",
            "note_on channel=0 note=75 velocity=80 time=0\n",
            "reset time=0\n",
            "note_off channel=11 note=39 velocity=0 time=0\n",
            "note_on channel=0 note=46 velocity=0 time=0\n",
            "reset time=0\n",
            "program_change channel=11 program=24 time=0\n",
            "note_on channel=0 note=82 velocity=63 time=0\n",
            "reset time=0\n",
            "note_on channel=0 note=82 velocity=70 time=0\n",
            "note_off channel=1 note=112 velocity=65 time=0\n",
            "reset time=0\n",
            "note_off channel=11 note=39 velocity=0 time=0\n",
            "note_on channel=0 note=82 velocity=63 time=0\n",
            "reset time=0\n",
            "program_change channel=11 program=24 time=0\n",
            "note_on channel=0 note=82 velocity=63 time=0\n",
            "reset time=0\n",
            "control_change channel=5 control=3 value=0 time=0\n",
            "note_on channel=0 note=82 velocity=69 time=0\n",
            "note_off channel=1 note=112 velocity=65 time=0\n",
            "reset time=0\n",
            "note_on channel=0 note=53 velocity=60 time=0\n",
            "note_off channel=1 note=112 velocity=46 time=0\n",
            "reset time=0\n",
            "control_change channel=14 control=97 value=0 time=0\n",
            "note_on channel=0 note=53 velocity=33 time=0\n",
            "reset time=0\n",
            "program_change channel=0 program=0 time=0\n",
            "note_on channel=0 note=55 velocity=37 time=0\n",
            "reset time=0\n",
            "note_on channel=0 note=60 velocity=35 time=0\n",
            "note_off channel=2 note=104 velocity=58 time=0\n",
            "reset time=0\n",
            "control_change channel=14 control=97 value=0 time=0\n",
            "note_on channel=0 note=56 velocity=33 time=0\n",
            "reset time=0\n",
            "note_on channel=0 note=55 velocity=37 time=0\n",
            "reset time=0\n",
            "note_off channel=11 note=39 velocity=0 time=0\n",
            "note_on channel=0 note=82 velocity=63 time=0\n",
            "reset time=0\n",
            "program_change channel=11 program=24 time=0\n",
            "note_on channel=0 note=84 velocity=0 time=0\n",
            "reset time=0\n",
            "note_on channel=0 note=81 velocity=0 time=0\n",
            "note_off channel=1 note=112 velocity=65 time=0\n",
            "reset time=0\n",
            "note_off channel=11 note=39 velocity=0 time=0\n",
            "note_on channel=0 note=82 velocity=63 time=0\n",
            "reset time=0\n",
            "program_change channel=11 program=24 time=0\n",
            "note_on channel=0 note=84 velocity=0 time=0\n",
            "reset time=0\n",
            "control_change channel=5 control=3 value=0 time=0\n",
            "note_on channel=0 note=81 velocity=0 time=0\n",
            "note_off channel=1 note=112 velocity=65 time=0\n",
            "reset time=0\n",
            "note_on channel=0 note=53 velocity=60 time=0\n",
            "note_off channel=1 note=112 velocity=34 time=0\n",
            "reset time=0\n",
            "note_on channel=0 note=51 velocity=55 time=0\n",
            "reset time=0\n",
            "reset time=0\n",
            "note_on channel=0 note=35 velocity=0 time=0\n",
            "note_off channel=2 note=104 velocity=58 time=0\n",
            "reset time=0\n",
            "control_change channel=14 control=97 value=0 time=0\n",
            "note_on channel=0 note=56 velocity=33 time=0\n",
            "reset time=0\n",
            "note_on channel=0 note=55 velocity=37 time=0\n",
            "control_change channel=0 control=64 value=127 time=0\n",
            "note_on channel=0 note=39 velocity=0 time=0\n",
            "reset time=0\n",
            "note_on channel=0 note=51 velocity=0 time=0\n",
            "control_change channel=0 control=64 value=0 time=0\n",
            "note_off channel=1 note=42 velocity=64 time=0\n",
            "reset time=0\n",
            "control_change channel=11 control=62 value=0 time=0\n",
            "note_on channel=0 note=68 velocity=0 time=0\n",
            "reset time=0\n",
            "note_on channel=0 note=67 velocity=0 time=0\n",
            "control_change channel=0 control=64 value=0 time=0\n",
            "note_off channel=1 note=16 velocity=64 time=0\n",
            "note_on channel=0 note=39 velocity=0 time=0\n",
            "reset time=0\n",
            "note_off channel=5 note=104 velocity=0 time=0\n",
            "note_on channel=0 note=51 velocity=0 time=0\n",
            "control_change channel=0 control=64 value=0 time=0\n",
            "note_off channel=1 note=1 velocity=64 time=0\n",
            "reset time=0\n",
            "control_change channel=8 control=30 value=0 time=0\n",
            "note_on channel=0 note=74 velocity=0 time=0\n",
            "reset time=0\n",
            "note_on channel=0 note=75 velocity=0 time=0\n",
            "control_change channel=0 control=64 value=0 time=0\n",
            "note_on channel=0 note=39 velocity=0 time=0\n",
            "reset time=0\n",
            "note_off channel=14 note=11 velocity=0 time=0\n",
            "note_on channel=0 note=51 velocity=0 time=0\n",
            "control_change channel=0 control=64 value=0 time=0\n",
            "reset time=0\n",
            "control_change channel=11 control=62 value=0 time=0\n",
            "note_on channel=0 note=74 velocity=0 time=0\n",
            "reset time=0\n",
            "note_on channel=0 note=79 velocity=0 time=0\n",
            "control_change channel=0 control=64 value=0 time=0\n",
            "note_off channel=1 note=1 velocity=64 time=0\n",
            "note_on channel=0 note=39 velocity=0 time=0\n",
            "reset time=0\n",
            "note_on channel=0 note=51 velocity=0 time=0\n",
            "control_change channel=0 control=64 value=0 time=0\n",
            "note_off channel=1 note=21 velocity=64 time=0\n",
            "reset time=0\n",
            "aftertouch channel=8 value=20 time=0\n",
            "note_on channel=0 note=80 velocity=0 time=0\n",
            "reset time=0\n",
            "pitchwheel channel=15 pitch=-8070 time=0\n",
            "note_on channel=0 note=87 velocity=0 time=0\n",
            "control_change channel=0 control=64 value=0 time=0\n",
            "note_off channel=1 note=112 velocity=64 time=0\n",
            "reset time=0\n",
            "aftertouch channel=9 value=0 time=0\n",
            "note_on channel=0 note=39 velocity=0 time=0\n",
            "note_off channel=3 note=96 velocity=63 time=0\n",
            "control_change channel=0 control=64 value=0 time=0\n",
            "reset time=0\n",
            "note_on channel=0 note=48 velocity=36 time=0\n",
            "note_off channel=1 note=112 velocity=48 time=0\n",
            "control_change channel=0 control=64 value=127 time=0\n",
            "note_on channel=0 note=47 velocity=0 time=0\n",
            "control_change channel=0 control=64 value=0 time=0\n",
            "reset time=0\n",
            "note_on channel=0 note=48 velocity=0 time=0\n",
            "reset time=0\n",
            "note_on channel=0 note=58 velocity=42 time=0\n",
            "reset time=0\n",
            "note_on channel=0 note=58 velocity=77 time=0\n",
            "reset time=0\n",
            "note_on channel=0 note=63 velocity=40 time=0\n",
            "note_off channel=1 note=112 velocity=63 time=0\n",
            "control_change channel=0 control=64 value=127 time=0\n",
            "note_on channel=0 note=62 velocity=0 time=0\n",
            "control_change channel=0 control=64 value=0 time=0\n",
            "reset time=0\n",
            "note_on channel=0 note=63 velocity=0 time=0\n",
            "reset time=0\n",
            "note_on channel=0 note=70 velocity=38 time=0\n",
            "reset time=0\n",
            "note_on channel=0 note=55 velocity=0 time=0\n",
            "note_off channel=1 note=112 velocity=61 time=0\n",
            "reset time=0\n",
            "note_on channel=0 note=62 velocity=0 time=0\n",
            "reset time=0\n",
            "note_on channel=0 note=70 velocity=38 time=0\n",
            "control_change channel=0 control=64 value=127 time=0\n",
            "note_on channel=0 note=45 velocity=0 time=0\n",
            "control_change channel=0 control=64 value=0 time=0\n",
            "reset time=0\n",
            "note_on channel=0 note=46 velocity=0 time=0\n",
            "reset time=0\n",
            "note_on channel=0 note=58 velocity=42 time=0\n",
            "reset time=0\n",
            "note_on channel=0 note=58 velocity=77 time=0\n",
            "reset time=0\n",
            "note_on channel=0 note=65 velocity=40 time=0\n",
            "note_off channel=1 note=112 velocity=65 time=0\n",
            "control_change channel=0 control=64 value=127 time=0\n",
            "note_on channel=0 note=64 velocity=0 time=0\n",
            "control_change channel=0 control=64 value=0 time=0\n",
            "reset time=0\n",
            "note_on channel=0 note=65 velocity=0 time=0\n",
            "reset time=0\n",
            "note_on channel=0 note=70 velocity=38 time=0\n",
            "reset time=0\n",
            "note_on channel=0 note=56 velocity=0 time=0\n",
            "control_change channel=0 control=64 value=127 time=0\n",
            "note_on channel=0 note=63 velocity=0 time=0\n",
            "control_change channel=0 control=64 value=0 time=0\n",
            "reset time=0\n",
            "note_on channel=0 note=64 velocity=0 time=0\n",
            "reset time=0\n",
            "note_on channel=0 note=70 velocity=38 time=0\n",
            "reset time=0\n",
            "note_on channel=0 note=64 velocity=45 time=0\n",
            "control_change channel=0 control=64 value=127 time=0\n",
            "note_on channel=0 note=64 velocity=0 time=0\n",
            "control_change channel=0 control=64 value=0 time=0\n",
            "reset time=0\n",
            "note_on channel=0 note=65 velocity=0 time=0\n",
            "reset time=0\n",
            "note_on channel=0 note=73 velocity=40 time=0\n",
            "reset time=0\n",
            "note_on channel=0 note=66 velocity=47 time=0\n",
            "control_change channel=0 control=64 value=127 time=0\n",
            "note_on channel=0 note=66 velocity=0 time=0\n",
            "control_change channel=0 control=64 value=0 time=0\n",
            "reset time=0\n",
            "note_on channel=0 note=67 velocity=0 time=0\n",
            "reset time=0\n",
            "program_change channel=15 program=0 time=0\n",
            "note_on channel=0 note=73 velocity=41 time=0\n",
            "reset time=0\n",
            "note_on channel=0 note=72 velocity=49 time=0\n",
            "note_off channel=1 note=112 velocity=72 time=0\n",
            "note_off channel=1 note=112 velocity=70 time=0\n",
            "note_off channel=1 note=112 velocity=69 time=0\n",
            "reset time=0\n",
            "note_on channel=0 note=70 velocity=0 time=0\n",
            "control_change channel=0 control=64 value=127 time=0\n",
            "note_on channel=0 note=67 velocity=0 time=0\n",
            "control_change channel=0 control=64 value=0 time=0\n",
            "reset time=0\n",
            "note_on channel=0 note=68 velocity=0 time=0\n",
            "reset time=0\n",
            "program_change channel=15 program=0 time=0\n",
            "note_on channel=0 note=77 velocity=44 time=0\n",
            "reset time=0\n",
            "note_on channel=0 note=71 velocity=52 time=0\n",
            "control_change channel=0 control=64 value=127 time=0\n",
            "note_on channel=0 note=71 velocity=0 time=0\n",
            "control_change channel=0 control=64 value=0 time=0\n",
            "reset time=0\n",
            "note_on channel=0 note=72 velocity=0 time=0\n",
            "reset time=0\n",
            "program_change channel=15 program=0 time=0\n",
            "note_on channel=0 note=80 velocity=47 time=0\n",
            "reset time=0\n",
            "note_on channel=0 note=76 velocity=56 time=0\n",
            "control_change channel=0 control=64 value=127 time=0\n",
            "note_on channel=0 note=76 velocity=0 time=0\n",
            "control_change channel=0 control=64 value=0 time=0\n",
            "reset time=0\n",
            "note_on channel=0 note=77 velocity=0 time=0\n",
            "reset time=0\n",
            "program_change channel=15 program=0 time=0\n",
            "note_on channel=0 note=83 velocity=50 time=0\n",
            "reset time=0\n",
            "note_on channel=0 note=79 velocity=63 time=0\n",
            "control_change channel=0 control=64 value=127 time=0\n",
            "note_on channel=0 note=79 velocity=0 time=0\n",
            "control_change channel=0 control=64 value=0 time=0\n",
            "reset time=0\n",
            "note_on channel=0 note=80 velocity=0 time=0\n",
            "reset time=0\n",
            "program_change channel=15 program=0 time=0\n",
            "note_on channel=0 note=86 velocity=60 time=0\n",
            "reset time=0\n",
            "note_on channel=0 note=85 velocity=79 time=0\n",
            "control_change channel=0 control=64 value=127 time=0\n",
            "note_on channel=0 note=85 velocity=0 time=0\n",
            "control_change channel=0 control=64 value=0 time=0\n",
            "reset time=0\n",
            "note_on channel=0 note=86 velocity=0 time=0\n",
            "reset time=0\n",
            "note_on channel=0 note=89 velocity=64 time=0\n",
            "reset time=0\n",
            "note_on channel=0 note=89 velocity=76 time=0\n",
            "control_change channel=0 control=64 value=127 time=0\n",
            "reset time=0\n",
            "note_on channel=0 note=80 velocity=65 time=0\n",
            "note_off channel=1 note=88 velocity=80 time=0\n",
            "note_off channel=1 note=88 velocity=80 time=0\n",
            "reset time=0\n",
            "note_off channel=11 note=39 velocity=0 time=0\n",
            "note_on channel=0 note=80 velocity=65 time=0\n",
            "note_off channel=1 note=88 velocity=80 time=0\n",
            "reset time=0\n",
            "note_on channel=0 note=89 velocity=0 time=0\n",
            "control_change channel=0 control=64 value=0 time=0\n",
            "note_on channel=0 note=68 velocity=65 time=0\n",
            "control_change channel=0 control=64 value=127 time=0\n",
            "note_on channel=0 note=68 velocity=0 time=0\n",
            "note_off channel=1 note=88 velocity=68 time=0\n",
            "reset time=0\n",
            "note_on channel=0 note=68 velocity=65 time=0\n",
            "note_off channel=1 note=88 velocity=68 time=0\n",
            "reset time=0\n",
            "note_on channel=0 note=71 velocity=0 time=0\n",
            "note_off channel=1 note=112 velocity=56 time=0\n",
            "note_off channel=1 note=88 velocity=56 time=0\n",
            "note_off channel=1 note=88 velocity=56 time=0\n",
            "reset time=0\n",
            "note_off channel=11 note=39 velocity=0 time=0\n",
            "note_on channel=0 note=56 velocity=65 time=0\n",
            "note_off channel=1 note=88 velocity=56 time=0\n",
            "reset time=0\n",
            "note_on channel=0 note=59 velocity=0 time=0\n",
            "control_change channel=0 control=64 value=0 time=0\n",
            "note_on channel=0 note=47 velocity=0 time=0\n",
            "note_off channel=1 note=88 velocity=56 time=0\n",
            "note_off channel=1 note=88 velocity=56 time=0\n",
            "reset time=0\n",
            "note_on channel=0 note=44 velocity=64 time=0\n",
            "note_off channel=1 note=88 velocity=44 time=0\n",
            "reset time=0\n",
            "program_change channel=7 program=0 time=0\n",
            "note_on channel=0 note=56 velocity=0 time=0\n",
            "control_change channel=0 control=64 value=0 time=0\n",
            "note_off channel=1 note=56 velocity=64 time=0\n",
            "reset time=0\n",
            "note_on channel=0 note=47 velocity=0 time=0\n",
            "note_off channel=1 note=88 velocity=56 time=0\n",
            "note_off channel=1 note=88 velocity=56 time=0\n",
            "reset time=0\n",
            "start time=0\n",
            "note_on channel=0 note=44 velocity=70 time=0\n",
            "note_off channel=1 note=88 velocity=56 time=0\n",
            "reset time=0\n",
            "note_on channel=0 note=57 velocity=0 time=0\n",
            "note_on channel=0 note=35 velocity=86 time=0\n",
            "control_change channel=0 control=64 value=0 time=0\n",
            "note_on channel=0 note=47 velocity=0 time=0\n",
            "reset time=0\n",
            "note_on channel=0 note=60 velocity=40 time=0\n",
            "reset time=0\n",
            "note_on channel=0 note=48 velocity=0 time=0\n",
            "control_change channel=0 control=64 value=127 time=0\n",
            "note_on channel=0 note=47 velocity=0 time=0\n",
            "control_change channel=0 control=64 value=0 time=0\n",
            "reset time=0\n",
            "note_on channel=0 note=48 velocity=0 time=0\n",
            "reset time=0\n",
            "note_on channel=0 note=65 velocity=38 time=0\n",
            "reset time=0\n",
            "note_on channel=0 note=63 velocity=45 time=0\n",
            "note_off channel=3 note=96 velocity=51 time=0\n",
            "reset time=0\n",
            "note_on channel=0 note=60 velocity=40 time=0\n",
            "note_off channel=1 note=112 velocity=48 time=0\n",
            "control_change channel=0 control=64 value=127 time=0\n",
            "note_on channel=0 note=47 velocity=0 time=0\n",
            "control_change channel=0 control=64 value=0 time=0\n",
            "reset time=0\n",
            "note_on channel=0 note=48 velocity=0 time=0\n",
            "reset time=0\n",
            "note_on channel=0 note=68 velocity=38 time=0\n",
            "reset time=0\n",
            "note_on channel=0 note=67 velocity=45 time=0\n",
            "note_off channel=3 note=96 velocity=55 time=0\n",
            "reset time=0\n",
            "note_on channel=0 note=60 velocity=40 time=0\n",
            "note_off channel=1 note=112 velocity=60 time=0\n",
            "control_change channel=0 control=64 value=127 time=0\n",
            "note_on channel=0 note=59 velocity=0 time=0\n",
            "control_change channel=0 control=64 value=0 time=0\n",
            "reset time=0\n",
            "note_on channel=0 note=60 velocity=0 time=0\n",
            "reset time=0\n",
            "aftertouch channel=13 value=0 time=0\n",
            "note_on channel=0 note=72 velocity=38 time=0\n",
            "reset time=0\n",
            "note_on channel=0 note=72 velocity=45 time=0\n",
            "control_change channel=0 control=64 value=127 time=0\n",
            "note_on channel=0 note=72 velocity=0 time=0\n",
            "control_change channel=0 control=64 value=0 time=0\n",
            "note_on channel=0 note=75 velocity=0 time=0\n",
            "reset time=0\n",
            "pitchwheel channel=5 pitch=7256 time=0\n",
            "reset time=0\n",
            "note_on channel=0 note=74 velocity=0 time=0\n",
            "control_change channel=0 control=64 value=0 time=0\n",
            "note_on channel=0 note=77 velocity=0 time=0\n",
            "note_off channel=1 note=112 velocity=75 time=0\n",
            "control_change channel=0 control=64 value=0 time=0\n",
            "reset time=0\n",
            "note_on channel=0 note=74 velocity=0 time=0\n",
            "reset time=0\n",
            "note_on channel=0 note=72 velocity=0 time=0\n",
            "control_change channel=0 control=64 value=0 time=0\n",
            "note_on channel=0 note=55 velocity=0 time=0\n",
            "note_off channel=1 note=112 velocity=55 time=0\n",
            "reset time=0\n",
            "note_on channel=0 note=43 velocity=0 time=0\n",
            "control_change channel=0 control=64 value=127 time=0\n",
            "note_on channel=0 note=42 velocity=0 time=0\n",
            "control_change channel=0 control=64 value=0 time=0\n",
            "reset time=0\n",
            "note_on channel=0 note=43 velocity=0 time=0\n",
            "reset time=0\n",
            "note_on channel=0 note=60 velocity=38 time=0\n",
            "reset time=0\n",
            "note_on channel=0 note=59 velocity=45 time=0\n",
            "note_off channel=3 note=96 velocity=47 time=0\n",
            "note_off channel=1 note=112 velocity=55 time=0\n",
            "reset time=0\n",
            "note_on channel=0 note=43 velocity=0 time=0\n",
            "control_change channel=0 control=64 value=127 time=0\n",
            "note_on channel=0 note=42 velocity=0 time=0\n",
            "control_change channel=0 control=64 value=0 time=0\n",
            "reset time=0\n",
            "note_on channel=0 note=43 velocity=0 time=0\n",
            "reset time=0\n",
            "note_on channel=0 note=63 velocity=38 time=0\n",
            "reset time=0\n",
            "note_off channel=5 note=104 velocity=0 time=0\n",
            "note_on channel=0 note=62 velocity=45 time=0\n",
            "note_off channel=3 note=96 velocity=50 time=0\n",
            "note_off channel=1 note=112 velocity=55 time=0\n",
            "reset time=0\n",
            "note_on channel=0 note=59 velocity=51 time=0\n",
            "reset time=0\n",
            "note_on channel=0 note=80 velocity=60 time=0\n",
            "reset time=0\n",
            "note_on channel=0 note=79 velocity=63 time=0\n",
            "reset time=0\n",
            "note_on channel=0 note=74 velocity=54 time=0\n",
            "reset time=0\n",
            "note_on channel=0 note=72 velocity=62 time=0\n",
            "control_change channel=0 control=64 value=127 time=0\n",
            "note_on channel=0 note=60 velocity=0 time=0\n",
            "reset time=0\n",
            "note_on channel=0 note=72 velocity=0 time=0\n",
            "control_change channel=0 control=64 value=0 time=0\n",
            "note_on channel=0 note=60 velocity=0 time=0\n",
            "control_change channel=0 control=64 value=0 time=0\n",
            "note_on channel=0 note=70 velocity=0 time=0\n",
            "reset time=0\n",
            "note_on channel=0 note=72 velocity=0 time=0\n",
            "reset time=0\n",
            "note_on channel=0 note=84 velocity=52 time=0\n",
            "reset time=0\n",
            "note_on channel=0 note=84 velocity=60 time=0\n",
            "control_change channel=0 control=64 value=127 time=0\n",
            "reset time=0\n",
            "note_on channel=0 note=60 velocity=0 time=0\n",
            "control_change channel=0 control=64 value=0 time=0\n",
            "note_on channel=0 note=60 velocity=0 time=0\n",
            "control_change channel=0 control=64 value=0 time=0\n",
            "note_on channel=0 note=71 velocity=0 time=0\n",
            "reset time=0\n",
            "program_change channel=14 program=81 time=0\n",
            "note_on channel=0 note=84 velocity=0 time=0\n",
            "reset time=0\n",
            "note_on channel=0 note=83 velocity=0 time=0\n",
            "control_change channel=0 control=64 value=0 time=0\n",
            "note_on channel=0 note=60 velocity=0 time=0\n",
            "control_change channel=0 control=64 value=0 time=0\n",
            "note_on channel=0 note=67 velocity=0 time=0\n",
            "reset time=0\n",
            "note_on channel=0 note=72 velocity=0 time=0\n",
            "control_change channel=0 control=64 value=127 time=0\n",
            "note_on channel=0 note=71 velocity=0 time=0\n",
            "reset time=0\n",
            "note_on channel=0 note=75 velocity=0 time=0\n",
            "control_change channel=0 control=64 value=0 time=0\n",
            "note_on channel=0 note=70 velocity=0 time=0\n",
            "reset time=0\n",
            "note_on channel=0 note=77 velocity=0 time=0\n",
            "reset time=0\n",
            "note_on channel=0 note=79 velocity=0 time=0\n",
            "control_change channel=0 control=64 value=0 time=0\n",
            "note_on channel=0 note=60 velocity=0 time=0\n",
            "reset time=0\n",
            "program_change channel=0 program=0 time=0\n",
            "note_on channel=0 note=83 velocity=0 time=0\n",
            "control_change channel=0 control=64 value=0 time=0\n",
            "note_on channel=0 note=68 velocity=0 time=0\n",
            "reset time=0\n",
            "note_on channel=0 note=84 velocity=0 time=0\n",
            "reset time=0\n",
            "note_on channel=0 note=89 velocity=0 time=0\n",
            "control_change channel=0 control=64 value=0 time=0\n",
            "note_on channel=0 note=60 velocity=0 time=0\n",
            "control_change channel=0 control=64 value=0 time=0\n",
            "note_on channel=0 note=71 velocity=0 time=0\n",
            "reset time=0\n",
            "note_on channel=0 note=84 velocity=0 time=0\n",
            "reset time=0\n",
            "note_on channel=0 note=83 velocity=0 time=0\n",
            "control_change channel=0 control=64 value=0 time=0\n",
            "note_on channel=0 note=72 velocity=44 time=0\n",
            "control_change channel=0 control=64 value=127 time=0\n",
            "note_on channel=0 note=84 velocity=0 time=0\n",
            "control_change channel=0 control=64 value=0 time=0\n",
            "note_on channel=0 note=72 velocity=0 time=0\n",
            "control_change channel=0 control=64 value=127 time=0\n",
            "reset time=0\n",
            "note_on channel=9 note=124 velocity=0 time=0\n",
            "note_on channel=0 note=86 velocity=0 time=0\n",
            "reset time=0\n",
            "note_on channel=0 note=84 velocity=0 time=0\n",
            "control_change channel=0 control=64 value=0 time=0\n",
            "note_on channel=0 note=83 velocity=0 time=0\n",
            "control_change channel=0 control=64 value=0 time=0\n",
            "note_on channel=0 note=80 velocity=0 time=0\n",
            "control_change channel=0 control=64 value=127 time=0\n",
            "reset time=0\n",
            "note_on channel=9 note=124 velocity=0 time=0\n",
            "note_on channel=0 note=75 velocity=0 time=0\n",
            "reset time=0\n",
            "note_on channel=0 note=74 velocity=0 time=0\n",
            "control_change channel=0 control=64 value=0 time=0\n",
            "note_on channel=0 note=72 velocity=0 time=0\n",
            "control_change channel=0 control=64 value=0 time=0\n",
            "note_on channel=0 note=72 velocity=0 time=0\n",
            "control_change channel=0 control=64 value=127 time=0\n",
            "reset time=0\n",
            "note_on channel=0 note=74 velocity=0 time=0\n",
            "reset time=0\n",
            "note_on channel=0 note=72 velocity=0 time=0\n",
            "control_change channel=0 control=64 value=0 time=0\n",
            "note_on channel=0 note=71 velocity=0 time=0\n",
            "control_change channel=0 control=64 value=127 time=0\n",
            "note_on channel=0 note=72 velocity=0 time=0\n",
            "control_change channel=0 control=64 value=0 time=0\n",
            "note_on channel=0 note=71 velocity=0 time=0\n",
            "control_change channel=0 control=64 value=127 time=0\n",
            "reset time=0\n",
            "note_on channel=9 note=124 velocity=0 time=0\n",
            "note_on channel=0 note=63 velocity=0 time=0\n",
            "reset time=0\n",
            "note_on channel=0 note=62 velocity=0 time=0\n",
            "control_change channel=0 control=64 value=0 time=0\n",
            "note_on channel=0 note=60 velocity=0 time=0\n",
            "control_change channel=0 control=64 value=0 time=0\n",
            "note_on channel=0 note=60 velocity=0 time=0\n",
            "control_change channel=0 control=64 value=127 time=0\n",
            "reset time=0\n",
            "note_on channel=5 note=30 velocity=0 time=0\n",
            "note_on channel=0 note=62 velocity=0 time=0\n",
            "reset time=0\n",
            "note_off channel=14 note=11 velocity=0 time=0\n",
            "note_on channel=0 note=60 velocity=0 time=0\n",
            "control_change channel=0 control=64 value=0 time=0\n",
            "note_on channel=0 note=59 velocity=0 time=0\n",
            "control_change channel=0 control=64 value=0 time=0\n",
            "note_on channel=0 note=55 velocity=0 time=0\n",
            "control_change channel=0 control=64 value=0 time=0\n",
            "note_on channel=0 note=55 velocity=0 time=0\n",
            "control_change channel=0 control=64 value=0 time=0\n",
            "note_on channel=0 note=62 velocity=0 time=0\n",
            "control_change channel=0 control=64 value=0 time=0\n",
            "note_on channel=0 note=55 velocity=0 time=0\n",
            "control_change channel=0 control=64 value=0 time=0\n",
            "note_on channel=0 note=63 velocity=0 time=0\n",
            "control_change channel=0 control=64 value=0 time=0\n",
            "note_on channel=0 note=55 velocity=0 time=0\n",
            "control_change channel=0 control=64 value=0 time=0\n",
            "note_on channel=0 note=62 velocity=0 time=0\n",
            "control_change channel=0 control=64 value=0 time=0\n",
            "note_on channel=0 note=55 velocity=0 time=0\n",
            "control_change channel=0 control=64 value=0 time=0\n",
            "reset time=0\n",
            "note_on channel=0 note=63 velocity=0 time=0\n",
            "reset time=0\n",
            "note_on channel=0 note=60 velocity=0 time=0\n",
            "control_change channel=0 control=64 value=0 time=0\n",
            "note_on channel=0 note=43 velocity=0 time=0\n",
            "reset time=0\n",
            "control_change channel=8 control=30 value=0 time=0\n",
            "note_on channel=0 note=67 velocity=40 time=0\n",
            "reset time=0\n",
            "program_change channel=7 program=0 time=0\n",
            "note_on channel=0 note=76 velocity=40 time=0\n",
            "reset time=0\n",
            "pitchwheel channel=2 pitch=-8192 time=0\n",
            "note_on channel=0 note=67 velocity=0 time=0\n",
            "note_off channel=2 note=104 velocity=64 time=0\n",
            "reset time=0\n",
            "tune_request time=0\n",
            "reset time=0\n",
            "note_on channel=0 note=65 velocity=37 time=0\n",
            "note_off channel=7 note=64 velocity=62 time=0\n",
            "reset time=0\n",
            "control_change channel=8 control=30 value=0 time=0\n",
            "note_on channel=0 note=67 velocity=40 time=0\n",
            "reset time=0\n",
            "program_change channel=7 program=0 time=0\n",
            "note_on channel=0 note=76 velocity=40 time=0\n",
            "reset time=0\n",
            "pitchwheel channel=2 pitch=-8192 time=0\n",
            "note_on channel=0 note=67 velocity=0 time=0\n",
            "note_off channel=2 note=104 velocity=69 time=0\n",
            "reset time=0\n",
            "tune_request time=0\n",
            "reset time=0\n",
            "pitchwheel channel=2 pitch=-8192 time=0\n",
            "note_on channel=0 note=59 velocity=31 time=0\n",
            "note_off channel=7 note=64 velocity=55 time=0\n",
            "reset time=0\n",
            "control_change channel=8 control=30 value=0 time=0\n",
            "note_on channel=0 note=67 velocity=40 time=0\n",
            "reset time=0\n",
            "program_change channel=7 program=0 time=0\n",
            "note_on channel=0 note=76 velocity=40 time=0\n",
            "reset time=0\n",
            "pitchwheel channel=2 pitch=-8192 time=0\n",
            "note_on channel=0 note=67 velocity=0 time=0\n",
            "note_off channel=2 note=104 velocity=64 time=0\n",
            "reset time=0\n",
            "polytouch channel=9 note=76 value=120 time=0\n",
            "reset time=0\n",
            "note_on channel=0 note=53 velocity=28 time=0\n",
            "reset time=0\n",
            "control_change channel=5 control=3 value=0 time=0\n",
            "note_on channel=0 note=81 velocity=80 time=0\n",
            "note_off channel=3 note=96 velocity=65 time=0\n",
            "note_off channel=3 note=96 velocity=69 time=0\n",
            "note_off channel=1 note=112 velocity=81 time=0\n",
            "reset time=0\n",
            "note_on channel=0 note=77 velocity=50 time=0\n",
            "reset time=0\n",
            "note_on channel=0 note=76 velocity=53 time=0\n",
            "note_off channel=1 note=112 velocity=76 time=0\n",
            "note_off channel=1 note=112 velocity=74 time=0\n",
            "note_off channel=1 note=112 velocity=43 time=0\n",
            "reset time=0\n",
            "note_on channel=0 note=47 velocity=45 time=0\n",
            "reset time=0\n",
            "note_on channel=0 note=67 velocity=0 time=0\n",
            "reset time=0\n",
            "program_change channel=0 program=0 time=0\n",
            "note_on channel=0 note=64 velocity=0 time=0\n",
            "note_off channel=1 note=112 velocity=79 time=0\n",
            "reset time=0\n",
            "note_on channel=0 note=76 velocity=50 time=0\n",
            "reset time=0\n",
            "program_change channel=10 program=0 time=0\n",
            "note_on channel=0 note=48 velocity=0 time=0\n",
            "note_off channel=1 note=112 velocity=76 time=0\n",
            "note_off channel=1 note=112 velocity=74 time=0\n",
            "note_off channel=1 note=112 velocity=43 time=0\n",
            "reset time=0\n",
            "note_on channel=0 note=47 velocity=45 time=0\n",
            "reset time=0\n",
            "note_on channel=0 note=67 velocity=0 time=0\n",
            "reset time=0\n",
            "note_on channel=0 note=48 velocity=0 time=0\n",
            "reset time=0\n",
            "aftertouch channel=9 value=0 time=0\n",
            "note_on channel=0 note=63 velocity=0 time=0\n",
            "note_off channel=1 note=112 velocity=79 time=0\n",
            "reset time=0\n",
            "pitchwheel channel=5 pitch=-8104 time=0\n",
            "note_on channel=0 note=75 velocity=50 time=0\n",
            "reset time=0\n",
            "note_on channel=0 note=55 velocity=0 time=0\n",
            "note_off channel=1 note=112 velocity=63 time=0\n",
            "note_off channel=1 note=112 velocity=62 time=0\n",
            "reset time=0\n",
            "program_change channel=0 program=0 time=0\n",
            "note_on channel=0 note=56 velocity=55 time=0\n",
            "reset time=0\n",
            "note_on channel=0 note=59 velocity=48 time=0\n",
            "reset time=0\n",
            "control_change channel=5 control=3 value=10 time=0\n",
            "reset time=0\n",
            "control_change channel=5 control=3 value=0 time=0\n",
            "note_on channel=0 note=60 velocity=49 time=0\n",
            "reset time=0\n",
            "reset time=0\n",
            "aftertouch channel=9 value=15 time=0\n",
            "reset time=0\n",
            "program_change channel=10 program=15 time=0\n",
            "reset time=0\n",
            "program_change channel=0 program=15 time=0\n",
            "reset time=0\n",
            "control_change channel=0 control=64 value=127 time=0\n",
            "reset time=0\n",
            "reset time=0\n",
            "program_change channel=10 program=15 time=0\n",
            "reset time=0\n",
            "aftertouch channel=9 value=15 time=0\n",
            "reset time=0\n",
            "note_on channel=0 note=48 velocity=0 time=0\n",
            "reset time=0\n",
            "control_change channel=5 control=3 value=30 time=0\n",
            "reset time=0\n",
            "reset time=0\n",
            "reset time=0\n",
            "note_on channel=0 note=55 velocity=0 time=0\n",
            "reset time=0\n",
            "reset time=0\n",
            "program_change channel=10 program=70 time=0\n",
            "note_on channel=0 note=72 velocity=0 time=0\n",
            "reset time=0\n",
            "reset time=0\n",
            "aftertouch channel=9 value=15 time=0\n",
            "reset time=0\n",
            "program_change channel=0 program=15 time=0\n",
            "reset time=0\n",
            "reset time=0\n",
            "note_on channel=0 note=55 velocity=0 time=0\n",
            "reset time=0\n",
            "reset time=0\n",
            "reset time=0\n",
            "reset time=0\n",
            "program_change channel=0 program=10 time=0\n",
            "note_on channel=0 note=72 velocity=54 time=0\n",
            "reset time=0\n",
            "program_change channel=10 program=15 time=0\n",
            "reset time=0\n",
            "aftertouch channel=9 value=15 time=0\n",
            "reset time=0\n",
            "control_change channel=5 control=3 value=15 time=0\n",
            "reset time=0\n",
            "control_change channel=8 control=30 value=30 time=0\n",
            "reset time=0\n",
            "aftertouch channel=9 value=30 time=0\n",
            "reset time=0\n",
            "program_change channel=0 program=10 time=0\n",
            "note_on channel=0 note=55 velocity=0 time=0\n",
            "reset time=0\n",
            "reset time=0\n",
            "reset time=0\n",
            "reset time=0\n",
            "program_change channel=0 program=10 time=0\n",
            "note_on channel=0 note=72 velocity=0 time=0\n",
            "reset time=0\n",
            "program_change channel=10 program=12 time=0\n",
            "control_change channel=0 control=64 value=0 time=0\n",
            "reset time=0\n",
            "aftertouch channel=9 value=15 time=0\n",
            "reset time=0\n",
            "reset time=0\n",
            "control_change channel=5 control=3 value=15 time=0\n",
            "reset time=0\n",
            "control_change channel=8 control=30 value=15 time=0\n",
            "reset time=0\n",
            "control_change channel=11 control=62 value=0 time=0\n",
            "control_change channel=0 control=64 value=127 time=0\n",
            "reset time=0\n",
            "control_change channel=14 control=97 value=45 time=0\n",
            "reset time=0\n",
            "control_change channel=11 control=62 value=15 time=0\n",
            "reset time=0\n",
            "program_change channel=10 program=15 time=0\n",
            "reset time=0\n",
            "program_change channel=0 program=15 time=0\n",
            "reset time=0\n",
            "reset time=0\n",
            "note_on channel=0 note=55 velocity=0 time=0\n",
            "reset time=0\n",
            "reset time=0\n",
            "reset time=0\n",
            "reset time=0\n",
            "reset time=0\n",
            "program_change channel=0 program=30 time=0\n",
            "reset time=0\n",
            "program_change channel=10 program=10 time=0\n",
            "note_on channel=0 note=55 velocity=0 time=0\n",
            "reset time=0\n",
            "program_change channel=0 program=15 time=0\n",
            "reset time=0\n",
            "reset time=0\n",
            "reset time=0\n",
            "reset time=0\n",
            "program_change channel=0 program=10 time=0\n",
            "note_on channel=0 note=72 velocity=0 time=0\n",
            "control_change channel=0 control=64 value=0 time=0\n",
            "note_on channel=0 note=47 velocity=0 time=0\n",
            "reset time=0\n",
            "program_change channel=15 program=0 time=0\n",
            "note_on channel=0 note=74 velocity=48 time=0\n",
            "reset time=0\n",
            "control_change channel=5 control=3 value=0 time=0\n",
            "note_on channel=0 note=72 velocity=55 time=0\n",
            "control_change channel=0 control=64 value=0 time=0\n",
            "reset time=0\n",
            "reset time=0\n",
            "aftertouch channel=9 value=15 time=0\n",
            "reset time=0\n",
            "program_change channel=10 program=15 time=0\n",
            "reset time=0\n",
            "program_change channel=0 program=15 time=0\n",
            "reset time=0\n",
            "reset time=0\n",
            "control_change channel=0 control=64 value=127 time=0\n",
            "reset time=0\n",
            "program_change channel=10 program=15 time=0\n",
            "reset time=0\n",
            "aftertouch channel=9 value=15 time=0\n",
            "reset time=0\n",
            "note_on channel=0 note=48 velocity=0 time=0\n",
            "reset time=0\n",
            "control_change channel=5 control=3 value=30 time=0\n",
            "reset time=0\n",
            "reset time=0\n",
            "reset time=0\n",
            "note_on channel=0 note=55 velocity=0 time=0\n",
            "reset time=0\n",
            "reset time=0\n",
            "program_change channel=10 program=70 time=0\n",
            "note_on channel=0 note=75 velocity=0 time=0\n",
            "reset time=0\n",
            "reset time=0\n",
            "aftertouch channel=9 value=15 time=0\n",
            "reset time=0\n",
            "program_change channel=0 program=15 time=0\n",
            "reset time=0\n",
            "reset time=0\n",
            "note_on channel=0 note=55 velocity=0 time=0\n",
            "reset time=0\n",
            "reset time=0\n",
            "reset time=0\n",
            "reset time=0\n",
            "program_change channel=0 program=10 time=0\n",
            "note_on channel=0 note=72 velocity=61 time=0\n",
            "reset time=0\n",
            "program_change channel=10 program=15 time=0\n",
            "reset time=0\n",
            "aftertouch channel=9 value=15 time=0\n",
            "reset time=0\n",
            "control_change channel=5 control=3 value=15 time=0\n",
            "reset time=0\n",
            "control_change channel=8 control=30 value=30 time=0\n",
            "reset time=0\n",
            "aftertouch channel=9 value=30 time=0\n",
            "reset time=0\n",
            "program_change channel=0 program=10 time=0\n",
            "note_on channel=0 note=55 velocity=0 time=0\n",
            "reset time=0\n",
            "reset time=0\n",
            "reset time=0\n",
            "reset time=0\n",
            "program_change channel=0 program=10 time=0\n",
            "note_on channel=0 note=72 velocity=0 time=0\n",
            "reset time=0\n",
            "program_change channel=10 program=2 time=0\n",
            "control_change channel=0 control=64 value=0 time=0\n",
            "reset time=0\n",
            "aftertouch channel=9 value=15 time=0\n",
            "reset time=0\n",
            "control_change channel=0 control=64 value=127 time=0\n",
            "reset time=0\n",
            "control_change channel=5 control=3 value=15 time=0\n",
            "reset time=0\n",
            "control_change channel=8 control=30 value=15 time=0\n",
            "reset time=0\n",
            "control_change channel=11 control=62 value=15 time=0\n",
            "reset time=0\n",
            "control_change channel=14 control=97 value=45 time=0\n",
            "reset time=0\n",
            "control_change channel=11 control=62 value=15 time=0\n",
            "reset time=0\n",
            "program_change channel=10 program=15 time=0\n",
            "reset time=0\n",
            "program_change channel=0 program=15 time=0\n",
            "reset time=0\n",
            "reset time=0\n",
            "note_on channel=0 note=55 velocity=0 time=0\n",
            "reset time=0\n",
            "reset time=0\n",
            "reset time=0\n",
            "reset time=0\n",
            "reset time=0\n",
            "program_change channel=0 program=30 time=0\n",
            "reset time=0\n",
            "program_change channel=10 program=10 time=0\n",
            "note_on channel=0 note=55 velocity=0 time=0\n",
            "reset time=0\n",
            "program_change channel=0 program=15 time=0\n",
            "reset time=0\n",
            "reset time=0\n",
            "reset time=0\n",
            "reset time=0\n",
            "program_change channel=0 program=10 time=0\n",
            "note_on channel=0 note=72 velocity=0 time=0\n",
            "control_change channel=0 control=64 value=0 time=0\n",
            "note_on channel=0 note=47 velocity=0 time=0\n",
            "reset time=0\n",
            "program_change channel=15 program=0 time=0\n",
            "note_on channel=0 note=77 velocity=54 time=0\n",
            "control_change channel=0 control=64 value=0 time=0\n",
            "reset time=0\n",
            "aftertouch channel=9 value=30 time=0\n",
            "reset time=0\n",
            "control_change channel=8 control=30 value=21 time=0\n",
            "control_change channel=0 control=64 value=127 time=0\n",
            "reset time=0\n",
            "program_change channel=10 program=30 time=0\n",
            "reset time=0\n",
            "program_change channel=0 program=90 time=0\n",
            "reset time=0\n",
            "aftertouch channel=9 value=27 time=0\n",
            "note_on channel=0 note=48 velocity=0 time=0\n",
            "reset time=0\n",
            "program_change channel=10 program=30 time=0\n",
            "reset time=0\n",
            "reset time=0\n",
            "note_on channel=0 note=55 velocity=0 time=0\n",
            "reset time=0\n",
            "program_change channel=0 program=60 time=0\n",
            "reset time=0\n",
            "program_change channel=10 program=27 time=0\n",
            "note_on channel=0 note=79 velocity=0 time=0\n",
            "reset time=0\n",
            "aftertouch channel=9 value=30 time=0\n",
            "reset time=0\n",
            "control_change channel=5 control=3 value=60 time=0\n",
            "reset time=0\n",
            "note_on channel=0 note=55 velocity=0 time=0\n",
            "reset time=0\n",
            "reset time=0\n",
            "note_on channel=0 note=84 velocity=74 time=0\n",
            "reset time=0\n",
            "reset time=0\n",
            "reset time=0\n",
            "control_change channel=5 control=3 value=57 time=0\n",
            "note_on channel=0 note=55 velocity=0 time=0\n",
            "reset time=0\n",
            "program_change channel=0 program=87 time=0\n",
            "note_on channel=0 note=84 velocity=0 time=0\n",
            "control_change channel=0 control=64 value=0 time=0\n",
            "reset time=0\n",
            "reset time=0\n",
            "control_change channel=5 control=3 value=87 time=0\n",
            "note_on channel=0 note=55 velocity=0 time=0\n",
            "reset time=0\n",
            "reset time=0\n",
            "aftertouch channel=9 value=30 time=0\n",
            "reset time=0\n",
            "program_change channel=10 program=30 time=0\n",
            "reset time=0\n",
            "program_change channel=0 program=27 time=0\n",
            "reset time=0\n",
            "note_on channel=0 note=55 velocity=0 time=0\n",
            "reset time=0\n",
            "note_on channel=0 note=84 velocity=0 time=0\n",
            "control_change channel=0 control=64 value=0 time=0\n",
            "note_on channel=0 note=55 velocity=0 time=0\n",
            "reset time=0\n",
            "note_on channel=0 note=86 velocity=86 time=0\n",
            "reset time=0\n",
            "note_on channel=0 note=86 velocity=101 time=0\n",
            "control_change channel=0 control=64 value=0 time=0\n",
            "note_off channel=1 note=21 velocity=64 time=0\n",
            "note_on channel=0 note=86 velocity=0 time=0\n",
            "reset time=0\n",
            "note_on channel=0 note=86 velocity=0 time=0\n",
            "reset time=0\n",
            "note_on channel=0 note=83 velocity=0 time=0\n",
            "reset time=0\n",
            "program_change channel=0 program=107 time=0\n",
            "note_on channel=0 note=84 velocity=0 time=0\n",
            "reset time=0\n",
            "program_change channel=10 program=47 time=0\n",
            "note_on channel=0 note=80 velocity=0 time=0\n",
            "control_change channel=0 control=64 value=0 time=0\n",
            "reset time=0\n",
            "note_on channel=0 note=75 velocity=0 time=0\n",
            "control_change channel=0 control=64 value=127 time=0\n",
            "note_on channel=0 note=77 velocity=0 time=0\n",
            "note_off channel=1 note=32 velocity=79 time=0\n",
            "reset time=0\n",
            "note_on channel=0 note=77 velocity=0 time=0\n",
            "reset time=0\n",
            "program_change channel=0 program=67 time=0\n",
            "note_on channel=0 note=75 velocity=0 time=0\n",
            "reset time=0\n",
            "program_change channel=10 program=107 time=0\n",
            "note_on channel=0 note=74 velocity=0 time=0\n",
            "control_change channel=0 control=64 value=0 time=0\n",
            "reset time=0\n",
            "aftertouch channel=9 value=65 time=0\n",
            "control_change channel=0 control=64 value=127 time=0\n",
            "reset time=0\n",
            "note_on channel=0 note=72 velocity=0 time=0\n",
            "note_off channel=1 note=32 velocity=70 time=0\n",
            "note_off channel=1 note=32 velocity=68 time=0\n",
            "note_off channel=1 note=32 velocity=67 time=0\n",
            "reset time=0\n",
            "aftertouch channel=11 value=94 time=0\n",
            "note_on channel=0 note=65 velocity=0 time=0\n",
            "reset time=0\n",
            "pitchwheel channel=5 pitch=-8104 time=0\n",
            "note_on channel=0 note=63 velocity=0 time=0\n",
            "control_change channel=0 control=64 value=0 time=0\n",
            "note_on channel=0 note=62 velocity=59 time=0\n",
            "reset time=0\n",
            "aftertouch channel=9 value=0 time=0\n",
            "note_on channel=0 note=62 velocity=0 time=0\n",
            "control_change channel=0 control=64 value=0 time=0\n",
            "note_on channel=0 note=74 velocity=0 time=0\n",
            "reset time=0\n",
            "aftertouch channel=11 value=94 time=0\n",
            "note_on channel=0 note=43 velocity=70 time=0\n",
            "control_change channel=0 control=64 value=127 time=0\n",
            "note_on channel=0 note=59 velocity=63 time=0\n",
            "reset time=0\n",
            "aftertouch channel=9 value=0 time=0\n",
            "note_on channel=0 note=59 velocity=0 time=0\n",
            "control_change channel=0 control=64 value=0 time=0\n",
            "reset time=0\n",
            "note_on channel=0 note=71 velocity=0 time=0\n",
            "reset time=0\n",
            "control_change channel=5 control=3 value=22 time=0\n",
            "note_on channel=0 note=71 velocity=67 time=0\n",
            "control_change channel=0 control=64 value=127 time=0\n",
            "note_on channel=0 note=71 velocity=0 time=0\n",
            "reset time=0\n",
            "note_on channel=0 note=83 velocity=0 time=0\n",
            "reset time=0\n",
            "aftertouch channel=9 value=52 time=0\n",
            "note_on channel=0 note=65 velocity=0 time=0\n",
            "reset time=0\n",
            "program_change channel=10 program=112 time=0\n",
            "note_on channel=0 note=68 velocity=0 time=0\n",
            "reset time=0\n",
            "program_change channel=0 program=82 time=0\n",
            "note_on channel=0 note=67 velocity=0 time=0\n",
            "reset time=0\n",
            "note_on channel=0 note=65 velocity=0 time=0\n",
            "reset time=0\n",
            "note_on channel=0 note=62 velocity=0 time=0\n",
            "reset time=0\n",
            "note_on channel=0 note=83 velocity=0 time=0\n",
            "reset time=0\n",
            "program_change channel=0 program=12 time=0\n",
            "note_on channel=0 note=55 velocity=0 time=0\n",
            "reset time=0\n",
            "control_change channel=5 control=3 value=0 time=0\n",
            "note_on channel=0 note=83 velocity=0 time=0\n",
            "control_change channel=0 control=64 value=0 time=0\n",
            "note_on channel=0 note=72 velocity=0 time=0\n",
            "reset time=0\n",
            "note_on channel=0 note=51 velocity=0 time=0\n",
            "reset time=0\n",
            "aftertouch channel=9 value=12 time=0\n",
            "note_on channel=0 note=53 velocity=0 time=0\n",
            "reset time=0\n",
            "program_change channel=10 program=112 time=0\n",
            "note_on channel=0 note=72 velocity=0 time=0\n",
            "reset time=0\n",
            "program_change channel=0 program=2 time=0\n",
            "note_on channel=0 note=53 velocity=0 time=0\n",
            "reset time=0\n",
            "note_on channel=0 note=51 velocity=0 time=0\n",
            "control_change channel=0 control=64 value=0 time=0\n",
            "note_on channel=0 note=72 velocity=0 time=0\n",
            "reset time=0\n",
            "note_on channel=0 note=48 velocity=0 time=0\n",
            "reset time=0\n",
            "note_on channel=0 note=84 velocity=0 time=0\n",
            "control_change channel=0 control=64 value=0 time=0\n",
            "note_on channel=0 note=72 velocity=0 time=0\n",
            "control_change channel=0 control=64 value=127 time=0\n",
            "note_on channel=0 note=43 velocity=0 time=0\n",
            "reset time=0\n",
            "program_change channel=0 program=12 time=0\n",
            "note_on channel=0 note=41 velocity=0 time=0\n",
            "reset time=0\n",
            "pitchwheel channel=5 pitch=-8104 time=0\n",
            "note_on channel=0 note=84 velocity=0 time=0\n",
            "control_change channel=0 control=64 value=0 time=0\n",
            "note_on channel=0 note=77 velocity=71 time=0\n",
            "reset time=0\n",
            "aftertouch channel=9 value=0 time=0\n",
            "note_on channel=0 note=77 velocity=0 time=0\n",
            "control_change channel=0 control=64 value=0 time=0\n",
            "note_on channel=0 note=89 velocity=0 time=0\n",
            "reset time=0\n",
            "aftertouch channel=11 value=94 time=0\n",
            "note_on channel=0 note=31 velocity=70 time=0\n",
            "control_change channel=0 control=64 value=127 time=0\n",
            "note_on channel=0 note=74 velocity=75 time=0\n",
            "reset time=0\n",
            "aftertouch channel=9 value=0 time=0\n",
            "note_on channel=0 note=74 velocity=0 time=0\n",
            "control_change channel=0 control=64 value=0 time=0\n",
            "reset time=0\n",
            "note_on channel=0 note=86 velocity=0 time=0\n",
            "reset time=0\n",
            "control_change channel=5 control=3 value=22 time=0\n",
            "reset time=0\n",
            "control_change channel=5 control=3 value=0 time=0\n",
            "note_on channel=0 note=72 velocity=80 time=0\n",
            "reset time=0\n",
            "note_off channel=11 note=39 velocity=0 time=0\n",
            "note_on channel=0 note=48 velocity=0 time=0\n",
            "reset time=0\n",
            "program_change channel=11 program=24 time=0\n",
            "note_on channel=0 note=79 velocity=63 time=0\n",
            "reset time=0\n",
            "note_on channel=0 note=79 velocity=70 time=0\n",
            "note_off channel=1 note=112 velocity=65 time=0\n",
            "reset time=0\n",
            "note_off channel=11 note=39 velocity=0 time=0\n",
            "note_on channel=0 note=79 velocity=63 time=0\n",
            "reset time=0\n",
            "program_change channel=11 program=24 time=0\n",
            "note_on channel=0 note=79 velocity=63 time=0\n",
            "reset time=0\n",
            "control_change channel=5 control=3 value=0 time=0\n",
            "note_on channel=0 note=79 velocity=69 time=0\n",
            "note_off channel=1 note=112 velocity=65 time=0\n",
            "reset time=0\n",
            "note_on channel=0 note=50 velocity=60 time=0\n",
            "note_off channel=1 note=112 velocity=43 time=0\n",
            "reset time=0\n",
            "control_change channel=14 control=97 value=0 time=0\n",
            "note_on channel=0 note=50 velocity=33 time=0\n",
            "reset time=0\n",
            "program_change channel=0 program=0 time=0\n",
            "note_on channel=0 note=48 velocity=37 time=0\n",
            "reset time=0\n",
            "note_on channel=0 note=57 velocity=35 time=0\n",
            "note_off channel=2 note=104 velocity=55 time=0\n",
            "reset time=0\n",
            "control_change channel=14 control=97 value=0 time=0\n",
            "note_on channel=0 note=53 velocity=33 time=0\n",
            "reset time=0\n",
            "note_on channel=0 note=51 velocity=37 time=0\n",
            "reset time=0\n",
            "note_off channel=11 note=39 velocity=0 time=0\n",
            "note_on channel=0 note=79 velocity=63 time=0\n",
            "reset time=0\n",
            "program_change channel=11 program=24 time=0\n",
            "note_on channel=0 note=80 velocity=0 time=0\n",
            "reset time=0\n",
            "note_on channel=0 note=78 velocity=0 time=0\n",
            "note_off channel=1 note=112 velocity=65 time=0\n",
            "reset time=0\n",
            "note_off channel=11 note=39 velocity=0 time=0\n",
            "note_on channel=0 note=79 velocity=63 time=0\n",
            "reset time=0\n",
            "program_change channel=11 program=24 time=0\n",
            "note_on channel=0 note=80 velocity=0 time=0\n",
            "reset time=0\n",
            "control_change channel=5 control=3 value=0 time=0\n",
            "note_on channel=0 note=78 velocity=0 time=0\n",
            "note_off channel=1 note=112 velocity=65 time=0\n",
            "reset time=0\n",
            "pitchwheel channel=2 pitch=-8192 time=0\n",
            "note_on channel=0 note=50 velocity=60 time=0\n",
            "note_off channel=1 note=112 velocity=43 time=0\n",
            "reset time=0\n",
            "control_change channel=5 control=3 value=0 time=0\n",
            "note_on channel=0 note=48 velocity=55 time=0\n",
            "reset time=0\n",
            "reset time=0\n",
            "note_on channel=0 note=44 velocity=0 time=0\n",
            "note_off channel=2 note=104 velocity=55 time=0\n",
            "reset time=0\n",
            "control_change channel=14 control=97 value=0 time=0\n",
            "note_on channel=0 note=53 velocity=33 time=0\n",
            "reset time=0\n",
            "note_on channel=0 note=51 velocity=37 time=0\n",
            "control_change channel=0 control=64 value=127 time=0\n",
            "note_on channel=0 note=36 velocity=0 time=0\n",
            "reset time=0\n",
            "note_on channel=0 note=48 velocity=0 time=0\n",
            "control_change channel=0 control=64 value=0 time=0\n",
            "note_off channel=1 note=42 velocity=64 time=0\n",
            "reset time=0\n",
            "control_change channel=11 control=62 value=0 time=0\n",
            "note_on channel=0 note=65 velocity=0 time=0\n",
            "reset time=0\n",
            "note_on channel=0 note=63 velocity=0 time=0\n",
            "control_change channel=0 control=64 value=0 time=0\n",
            "note_off channel=1 note=16 velocity=64 time=0\n",
            "note_on channel=0 note=36 velocity=0 time=0\n",
            "reset time=0\n",
            "note_off channel=5 note=104 velocity=0 time=0\n",
            "note_on channel=0 note=48 velocity=0 time=0\n",
            "control_change channel=0 control=64 value=0 time=0\n",
            "note_off channel=1 note=1 velocity=64 time=0\n",
            "reset time=0\n",
            "control_change channel=8 control=30 value=0 time=0\n",
            "note_on channel=0 note=71 velocity=0 time=0\n",
            "reset time=0\n",
            "note_on channel=0 note=72 velocity=0 time=0\n",
            "control_change channel=0 control=64 value=0 time=0\n",
            "note_on channel=0 note=36 velocity=0 time=0\n",
            "reset time=0\n",
            "note_off channel=14 note=11 velocity=0 time=0\n",
            "note_on channel=0 note=48 velocity=0 time=0\n",
            "control_change channel=0 control=64 value=0 time=0\n",
            "reset time=0\n",
            "control_change channel=11 control=62 value=0 time=0\n",
            "note_on channel=0 note=71 velocity=0 time=0\n",
            "reset time=0\n",
            "note_on channel=0 note=75 velocity=0 time=0\n",
            "control_change channel=0 control=64 value=0 time=0\n",
            "note_off channel=1 note=1 velocity=64 time=0\n",
            "note_on channel=0 note=36 velocity=0 time=0\n",
            "reset time=0\n",
            "note_on channel=0 note=48 velocity=0 time=0\n",
            "control_change channel=0 control=64 value=0 time=0\n",
            "note_off channel=1 note=21 velocity=64 time=0\n",
            "reset time=0\n",
            "aftertouch channel=8 value=20 time=0\n",
            "note_on channel=0 note=77 velocity=0 time=0\n",
            "reset time=0\n",
            "note_on channel=0 note=84 velocity=0 time=0\n",
            "control_change channel=0 control=64 value=0 time=0\n",
            "note_on channel=0 note=32 velocity=0 time=0\n",
            "reset time=0\n",
            "note_on channel=0 note=44 velocity=0 time=0\n",
            "control_change channel=0 control=64 value=0 time=0\n",
            "note_off channel=1 note=42 velocity=64 time=0\n",
            "reset time=0\n",
            "control_change channel=11 control=62 value=0 time=0\n",
            "note_on channel=0 note=66 velocity=0 time=0\n",
            "reset time=0\n",
            "note_on channel=0 note=65 velocity=0 time=0\n",
            "control_change channel=0 control=64 value=0 time=0\n",
            "note_off channel=1 note=16 velocity=64 time=0\n",
            "note_on channel=0 note=32 velocity=0 time=0\n",
            "reset time=0\n",
            "note_off channel=5 note=104 velocity=0 time=0\n",
            "note_on channel=0 note=44 velocity=0 time=0\n",
            "control_change channel=0 control=64 value=0 time=0\n",
            "note_off channel=1 note=1 velocity=64 time=0\n",
            "reset time=0\n",
            "control_change channel=8 control=30 value=0 time=0\n",
            "note_on channel=0 note=73 velocity=0 time=0\n",
            "reset time=0\n",
            "note_on channel=0 note=72 velocity=0 time=0\n",
            "control_change channel=0 control=64 value=0 time=0\n",
            "note_on channel=0 note=32 velocity=0 time=0\n",
            "reset time=0\n",
            "note_off channel=14 note=11 velocity=0 time=0\n",
            "note_on channel=0 note=44 velocity=0 time=0\n",
            "control_change channel=0 control=64 value=0 time=0\n",
            "reset time=0\n",
            "control_change channel=11 control=62 value=0 time=0\n",
            "note_on channel=0 note=73 velocity=0 time=0\n",
            "reset time=0\n",
            "note_on channel=0 note=78 velocity=0 time=0\n",
            "control_change channel=0 control=64 value=0 time=0\n",
            "note_off channel=1 note=1 velocity=64 time=0\n",
            "reset time=0\n",
            "note_on channel=0 note=32 velocity=0 time=0\n",
            "reset time=0\n",
            "note_on channel=0 note=44 velocity=0 time=0\n",
            "control_change channel=0 control=64 value=0 time=0\n",
            "note_off channel=1 note=21 velocity=64 time=0\n",
            "reset time=0\n",
            "note_on channel=0 note=28 velocity=0 time=0\n",
            "note_on channel=0 note=77 velocity=0 time=0\n",
            "reset time=0\n",
            "pitchwheel channel=15 pitch=-8070 time=0\n",
            "note_on channel=0 note=84 velocity=0 time=0\n",
            "control_change channel=0 control=64 value=0 time=0\n",
            "note_off channel=3 note=16 velocity=64 time=0\n",
            "reset time=0\n",
            "note_on channel=0 note=78 velocity=0 time=0\n",
            "control_change channel=0 control=64 value=0 time=0\n",
            "note_on channel=0 note=85 velocity=0 time=0\n",
            "reset time=0\n",
            "note_on channel=0 note=84 velocity=0 time=0\n",
            "control_change channel=0 control=64 value=0 time=0\n",
            "reset time=0\n",
            "pitchwheel channel=2 pitch=-8136 time=0\n",
            "note_on channel=0 note=82 velocity=0 time=0\n",
            "reset time=0\n",
            "note_on channel=0 note=80 velocity=0 time=0\n",
            "reset time=0\n",
            "note_on channel=0 note=80 velocity=0 time=0\n",
            "control_change channel=0 control=64 value=0 time=0\n",
            "note_off channel=2 note=11 velocity=64 time=0\n",
            "note_on channel=0 note=78 velocity=0 time=0\n",
            "control_change channel=0 control=64 value=0 time=0\n",
            "reset time=0\n",
            "note_on channel=0 note=56 velocity=34 time=0\n",
            "reset time=0\n",
            "aftertouch channel=8 value=0 time=0\n",
            "note_on channel=0 note=65 velocity=34 time=0\n",
            "reset time=0\n",
            "note_on channel=0 note=37 velocity=0 time=0\n",
            "note_off channel=2 note=104 velocity=56 time=0\n",
            "reset time=0\n",
            "stop time=0\n",
            "reset time=0\n",
            "note_on channel=0 note=54 velocity=31 time=0\n",
            "reset time=0\n",
            "note_on channel=0 note=51 velocity=0 time=0\n",
            "reset time=0\n",
            "note_on channel=0 note=53 velocity=33 time=0\n",
            "reset time=0\n",
            "aftertouch channel=14 value=103 time=0\n",
            "note_on channel=0 note=65 velocity=34 time=0\n",
            "reset time=0\n",
            "pitchwheel channel=3 pitch=-8132 time=0\n",
            "note_on channel=0 note=65 velocity=0 time=0\n",
            "reset time=0\n",
            "control_change channel=13 control=112 value=0 time=0\n",
            "note_on channel=0 note=37 velocity=0 time=0\n",
            "note_off channel=2 note=104 velocity=58 time=0\n",
            "reset time=0\n",
            "reset time=0\n",
            "note_on channel=0 note=48 velocity=26 time=0\n",
            "note_off channel=7 note=64 velocity=44 time=0\n",
            "reset time=0\n",
            "program_change channel=6 program=0 time=0\n",
            "note_on channel=0 note=56 velocity=34 time=0\n",
            "reset time=0\n",
            "quarter_frame frame_type=0 frame_value=0 time=0\n",
            "note_on channel=0 note=65 velocity=34 time=0\n",
            "reset time=0\n",
            "note_on channel=0 note=37 velocity=0 time=0\n",
            "note_off channel=2 note=104 velocity=56 time=0\n",
            "reset time=0\n",
            "stop time=0\n",
            "reset time=0\n",
            "note_on channel=0 note=54 velocity=28 time=0\n",
            "control_change channel=0 control=64 value=127 time=0\n",
            "reset time=0\n",
            "reset time=0\n",
            "note_on channel=0 note=66 velocity=0 time=0\n",
            "note_off channel=1 note=110 velocity=60 time=0\n",
            "reset time=0\n",
            "note_on channel=0 note=63 velocity=0 time=0\n",
            "reset time=0\n",
            "note_on channel=0 note=60 velocity=0 time=0\n",
            "control_change channel=0 control=64 value=0 time=0\n",
            "reset time=0\n",
            "reset time=0\n",
            "control_change channel=0 control=64 value=127 time=0\n",
            "note_on channel=0 note=33 velocity=0 time=0\n",
            "reset time=0\n",
            "reset time=0\n",
            "note_on channel=0 note=39 velocity=33 time=0\n",
            "reset time=0\n",
            "program_change channel=4 program=51 time=0\n",
            "note_on channel=0 note=39 velocity=0 time=0\n",
            "reset time=0\n",
            "reset time=0\n",
            "note_on channel=0 note=45 velocity=36 time=0\n",
            "reset time=0\n",
            "reset time=0\n",
            "note_on channel=0 note=48 velocity=37 time=0\n",
            "reset time=0\n",
            "aftertouch channel=12 value=30 time=0\n",
            "reset time=0\n",
            "aftertouch channel=8 value=43 time=0\n",
            "note_on channel=0 note=51 velocity=39 time=0\n",
            "reset time=0\n",
            "reset time=0\n",
            "start time=0\n",
            "note_on channel=0 note=54 velocity=40 time=0\n",
            "reset time=0\n",
            "reset time=0\n",
            "tune_request time=0\n",
            "note_on channel=0 note=57 velocity=43 time=0\n",
            "reset time=0\n",
            "reset time=0\n",
            "aftertouch channel=14 value=60 time=0\n",
            "reset time=0\n",
            "pitchwheel channel=2 pitch=-7880 time=0\n",
            "note_on channel=0 note=60 velocity=46 time=0\n",
            "reset time=0\n",
            "note_on channel=0 note=66 velocity=49 time=0\n",
            "reset time=0\n",
            "note_on channel=0 note=66 velocity=0 time=0\n",
            "note_off channel=1 note=109 velocity=60 time=0\n",
            "reset time=0\n",
            "note_on channel=0 note=63 velocity=0 time=0\n",
            "note_off channel=7 note=58 velocity=45 time=0\n",
            "reset time=0\n",
            "note_on channel=0 note=51 velocity=0 time=0\n",
            "control_change channel=0 control=64 value=0 time=0\n",
            "note_on channel=0 note=31 velocity=0 time=0\n",
            "control_change channel=0 control=64 value=0 time=0\n",
            "note_on channel=0 note=67 velocity=0 time=0\n",
            "reset time=0\n",
            "note_on channel=0 note=50 velocity=53 time=0\n",
            "reset time=0\n",
            "reset time=0\n",
            "note_on channel=0 note=43 velocity=0 time=0\n",
            "reset time=0\n",
            "note_on channel=0 note=48 velocity=0 time=0\n",
            "reset time=0\n",
            "note_on channel=0 note=48 velocity=41 time=0\n",
            "reset time=0\n",
            "aftertouch channel=3 value=0 time=0\n",
            "note_on channel=0 note=60 velocity=44 time=0\n",
            "reset time=0\n",
            "note_on channel=0 note=65 velocity=54 time=0\n",
            "reset time=0\n",
            "note_on channel=0 note=84 velocity=0 time=0\n",
            "control_change channel=0 control=64 value=127 time=0\n",
            "note_on channel=0 note=48 velocity=0 time=0\n",
            "control_change channel=0 control=64 value=0 time=0\n",
            "note_on channel=0 note=53 velocity=0 time=0\n",
            "reset time=0\n",
            "note_on channel=0 note=84 velocity=0 time=0\n",
            "reset time=0\n",
            "note_on channel=0 note=89 velocity=54 time=0\n",
            "reset time=0\n",
            "note_on channel=0 note=88 velocity=66 time=0\n",
            "reset time=0\n",
            "note_on channel=0 note=48 velocity=0 time=0\n",
            "reset time=0\n",
            "note_on channel=0 note=48 velocity=41 time=0\n",
            "reset time=0\n",
            "aftertouch channel=3 value=0 time=0\n",
            "note_on channel=0 note=60 velocity=44 time=0\n",
            "reset time=0\n",
            "note_on channel=0 note=65 velocity=54 time=0\n",
            "reset time=0\n",
            "note_on channel=0 note=84 velocity=0 time=0\n",
            "control_change channel=0 control=64 value=127 time=0\n",
            "note_on channel=0 note=48 velocity=0 time=0\n",
            "control_change channel=0 control=64 value=0 time=0\n",
            "note_on channel=0 note=53 velocity=0 time=0\n",
            "reset time=0\n",
            "note_on channel=0 note=84 velocity=0 time=0\n",
            "reset time=0\n",
            "note_on channel=0 note=89 velocity=54 time=0\n",
            "reset time=0\n",
            "note_on channel=0 note=88 velocity=66 time=0\n",
            "reset time=0\n",
            "note_on channel=0 note=48 velocity=0 time=0\n",
            "reset time=0\n",
            "note_on channel=0 note=72 velocity=50 time=0\n",
            "reset time=0\n",
            "note_on channel=0 note=72 velocity=0 time=0\n",
            "control_change channel=0 control=64 value=127 time=0\n",
            "note_on channel=0 note=48 velocity=0 time=0\n",
            "control_change channel=0 control=64 value=0 time=0\n",
            "note_on channel=0 note=53 velocity=0 time=0\n",
            "reset time=0\n",
            "note_on channel=0 note=72 velocity=0 time=0\n",
            "reset time=0\n",
            "note_on channel=0 note=77 velocity=45 time=0\n",
            "reset time=0\n",
            "note_on channel=0 note=76 velocity=55 time=0\n",
            "reset time=0\n",
            "note_on channel=0 note=48 velocity=0 time=0\n",
            "reset time=0\n",
            "note_on channel=0 note=60 velocity=45 time=0\n",
            "reset time=0\n",
            "note_on channel=0 note=60 velocity=0 time=0\n",
            "control_change channel=0 control=64 value=127 time=0\n",
            "note_on channel=0 note=48 velocity=0 time=0\n",
            "control_change channel=0 control=64 value=0 time=0\n",
            "note_on channel=0 note=53 velocity=0 time=0\n",
            "reset time=0\n",
            "note_on channel=0 note=60 velocity=0 time=0\n",
            "reset time=0\n",
            "note_on channel=0 note=65 velocity=40 time=0\n",
            "reset time=0\n",
            "note_on channel=0 note=64 velocity=49 time=0\n",
            "control_change channel=0 control=64 value=127 time=0\n",
            "reset time=0\n",
            "aftertouch channel=15 value=0 time=0\n",
            "note_on channel=0 note=48 velocity=0 time=0\n",
            "reset time=0\n",
            "note_on channel=0 note=36 velocity=30 time=0\n",
            "reset time=0\n",
            "aftertouch channel=7 value=0 time=0\n",
            "note_on channel=0 note=36 velocity=40 time=0\n",
            "control_change channel=0 control=64 value=0 time=0\n",
            "note_off channel=1 note=86 velocity=64 time=0\n",
            "reset time=0\n",
            "aftertouch channel=0 value=0 time=0\n",
            "note_on channel=0 note=48 velocity=0 time=0\n",
            "reset time=0\n",
            "pitchwheel channel=14 pitch=-8135 time=0\n",
            "note_on channel=0 note=36 velocity=26 time=0\n",
            "reset time=0\n",
            "note_on channel=0 note=36 velocity=0 time=0\n",
            "note_off channel=3 note=96 velocity=55 time=0\n",
            "control_change channel=0 control=64 value=0 time=0\n",
            "reset time=0\n"
          ],
          "name": "stdout"
        }
      ]
    },
    {
      "metadata": {
        "id": "dZdO_WY7Ort7",
        "colab_type": "code",
        "colab": {}
      },
      "cell_type": "code",
      "source": [
        ""
      ],
      "execution_count": 0,
      "outputs": []
    }
  ]
}